<?xml version="1.0" encoding="UTF-8" standalone="no"?>
<!-- Generator: Adobe Illustrator 23.0.3, SVG Export Plug-In . SVG Version: 6.00 Build 0)  -->

<svg
   xmlns:dc="http://purl.org/dc/elements/1.1/"
   xmlns:cc="http://creativecommons.org/ns#"
   xmlns:rdf="http://www.w3.org/1999/02/22-rdf-syntax-ns#"
   xmlns:svg="http://www.w3.org/2000/svg"
   xmlns="http://www.w3.org/2000/svg"
   xmlns:sodipodi="http://sodipodi.sourceforge.net/DTD/sodipodi-0.dtd"
   xmlns:inkscape="http://www.inkscape.org/namespaces/inkscape"
   version="1.1"
   id="Warstwa_1"
   x="0px"
   y="0px"
   viewBox="0 0 798.94851 785.45999"
   xml:space="preserve"
   sodipodi:docname="cricket-logo.svg"
   width="798.94849"
   height="785.46002"
   inkscape:version="0.92.3 (2405546, 2018-03-11)"><metadata
   id="metadata107"><rdf:RDF><cc:Work
       rdf:about=""><dc:format>image/svg+xml</dc:format><dc:type
         rdf:resource="http://purl.org/dc/dcmitype/StillImage" /><dc:title></dc:title></cc:Work></rdf:RDF></metadata><defs
   id="defs105" /><sodipodi:namedview
   pagecolor="#ffffff"
   bordercolor="#666666"
   borderopacity="1"
   objecttolerance="10"
   gridtolerance="10"
   guidetolerance="10"
   inkscape:pageopacity="0"
   inkscape:pageshadow="2"
   inkscape:window-width="1148"
   inkscape:window-height="685"
   id="namedview103"
   showgrid="false"
   inkscape:zoom="0.18720204"
   inkscape:cx="386.50173"
   inkscape:cy="372.23496"
   inkscape:window-x="67"
   inkscape:window-y="27"
   inkscape:window-maximized="0"
   inkscape:current-layer="Warstwa_1"
   fit-margin-top="1"
   fit-margin-left="1"
   fit-margin-right="1"
   fit-margin-bottom="1" />
<style
   type="text/css"
   id="style2">
	.st0{fill:#0606FC;}
	.st1{fill:none;stroke:#0606FC;stroke-width:15;stroke-miterlimit:10;}
</style>
<g
   id="g52"
   transform="translate(-282.16325,-217.11)">
	<path
   class="st0"
   d="m 311.98,788.56 c -1.1,0 -2.13,-0.22 -3.1,-0.65 -0.97,-0.43 -1.81,-1.02 -2.54,-1.75 -0.72,-0.73 -1.3,-1.59 -1.72,-2.56 -0.42,-0.97 -0.63,-2.02 -0.63,-3.12 0,-1.13 0.21,-2.19 0.63,-3.19 0.42,-1 0.99,-1.87 1.72,-2.62 0.72,-0.75 1.57,-1.34 2.54,-1.77 0.97,-0.43 2,-0.65 3.1,-0.65 1.07,0 2.08,0.22 3.03,0.65 0.94,0.43 1.77,1.02 2.48,1.77 0.71,0.75 1.28,1.62 1.7,2.62 0.42,1 0.63,2.06 0.63,3.19 0,1.11 -0.21,2.15 -0.63,3.12 -0.42,0.97 -0.99,1.83 -1.7,2.56 -0.71,0.73 -1.54,1.32 -2.48,1.75 -0.95,0.43 -1.96,0.65 -3.03,0.65 z"
   id="path4"
   inkscape:connector-curvature="0"
   style="fill:#0606fc" />
	<path
   class="st0"
   d="m 317.07,712.44 c 0.62,-0.25 1.24,-0.5 1.87,-0.74 -0.65,-0.24 -1.28,-0.49 -1.87,-0.75 -0.6,-0.26 -1.2,-0.56 -1.8,-0.9 l -30.83,-17.51 c -0.54,-0.31 -0.86,-0.64 -0.98,-0.98 -0.12,-0.34 -0.18,-0.82 -0.18,-1.44 v -5.16 h 50.15 v 6.14 h -36.85 c -0.49,0 -1.01,-0.01 -1.58,-0.04 -0.56,-0.03 -1.13,-0.06 -1.72,-0.11 l 31.36,17.72 c 1.05,0.6 1.58,1.44 1.58,2.53 v 1.01 c 0,1.08 -0.53,1.92 -1.58,2.53 l -31.46,18.12 c 0.6,-0.07 1.2,-0.13 1.78,-0.16 0.58,-0.04 1.12,-0.05 1.61,-0.05 h 36.85 v 6.14 h -50.15 v -5.16 c 0,-0.63 0.06,-1.11 0.18,-1.45 0.11,-0.34 0.44,-0.66 0.98,-0.97 l 30.86,-17.87 c 0.57,-0.35 1.16,-0.65 1.78,-0.9 z"
   id="path6"
   inkscape:connector-curvature="0"
   style="fill:#0606fc" />
	<path
   class="st0"
   d="m 333.43,649.6 v 7.01 h -50.15 v -7.01 z"
   id="path8"
   inkscape:connector-curvature="0"
   style="fill:#0606fc" />
	<path
   class="st0"
   d="m 324.04,584.52 c 0.01,-0.38 0.18,-0.73 0.49,-1.03 l 3.01,-2.63 c 2.29,2.21 4.05,4.85 5.26,7.92 1.21,3.07 1.74,6.73 1.57,10.99 -0.15,3.73 -0.9,7.08 -2.26,10.06 -1.36,2.98 -3.21,5.5 -5.55,7.55 -2.33,2.06 -5.1,3.61 -8.29,4.66 -3.19,1.06 -6.68,1.51 -10.45,1.37 -3.78,-0.15 -7.21,-0.91 -10.32,-2.3 -3.1,-1.39 -5.73,-3.26 -7.91,-5.63 -2.17,-2.37 -3.82,-5.18 -4.94,-8.41 -1.13,-3.24 -1.61,-6.78 -1.46,-10.62 0.15,-3.8 0.84,-7.06 2.1,-9.76 1.25,-2.71 2.89,-5.1 4.93,-7.16 l 3.03,2.4 c 0.23,0.18 0.41,0.38 0.55,0.6 0.15,0.22 0.21,0.54 0.19,0.94 -0.01,0.31 -0.14,0.64 -0.37,0.98 -0.24,0.34 -0.53,0.75 -0.87,1.21 -0.34,0.47 -0.71,1.02 -1.11,1.65 -0.4,0.64 -0.78,1.39 -1.14,2.27 -0.36,0.88 -0.68,1.9 -0.94,3.07 -0.26,1.17 -0.43,2.52 -0.49,4.06 -0.11,2.76 0.26,5.31 1.09,7.65 0.83,2.33 2.07,4.36 3.71,6.08 1.64,1.72 3.66,3.1 6.07,4.12 2.41,1.02 5.14,1.59 8.17,1.71 3.12,0.12 5.93,-0.23 8.41,-1.06 2.48,-0.83 4.6,-2.01 6.35,-3.55 1.75,-1.54 3.12,-3.38 4.09,-5.53 0.97,-2.15 1.5,-4.49 1.6,-7.02 0.06,-1.54 0.03,-2.93 -0.1,-4.16 -0.12,-1.23 -0.35,-2.38 -0.69,-3.44 -0.33,-1.06 -0.77,-2.05 -1.3,-2.97 -0.54,-0.93 -1.18,-1.86 -1.94,-2.81 -0.35,-0.42 -0.51,-0.83 -0.49,-1.21 z"
   id="path10"
   inkscape:connector-curvature="0"
   style="fill:#0606fc" />
	<path
   class="st0"
   d="m 319.16,545.9 20.44,4.51 -1.5,6.8 -48.97,-10.8 3.15,-14.28 c 0.71,-3.19 1.63,-5.89 2.77,-8.08 1.14,-2.19 2.47,-3.91 3.99,-5.16 1.52,-1.25 3.2,-2.06 5.03,-2.42 1.84,-0.36 3.79,-0.31 5.86,0.15 1.73,0.38 3.29,1.02 4.67,1.91 1.38,0.89 2.55,2.01 3.51,3.34 0.96,1.33 1.69,2.86 2.2,4.59 0.51,1.73 0.75,3.61 0.76,5.66 0.67,-0.74 1.53,-1.34 2.58,-1.8 l 22.7,-10.45 -1.34,6.06 c -0.27,1.24 -0.94,2.06 -2.01,2.44 l -20.39,9.25 c -0.64,0.28 -1.13,0.63 -1.47,1.04 -0.34,0.42 -0.62,1.1 -0.83,2.04 z m -4.81,-1.07 1.58,-7.15 c 0.44,-2 0.6,-3.81 0.46,-5.42 -0.13,-1.62 -0.51,-3.03 -1.14,-4.24 -0.63,-1.21 -1.48,-2.2 -2.55,-2.98 -1.07,-0.78 -2.33,-1.33 -3.76,-1.64 -2.92,-0.64 -5.33,-0.14 -7.25,1.52 -1.92,1.66 -3.31,4.45 -4.18,8.38 l -1.65,7.47 z"
   id="path12"
   inkscape:connector-curvature="0"
   style="fill:#0606fc" />
	<path
   class="st0"
   d="m 348.3,446.62 c 3.45,1.48 6.38,3.4 8.78,5.76 2.4,2.36 4.2,5.02 5.41,7.96 1.2,2.95 1.76,6.11 1.67,9.49 -0.08,3.38 -0.88,6.82 -2.37,10.31 -1.5,3.5 -3.43,6.44 -5.81,8.82 -2.37,2.39 -5.04,4.17 -8,5.33 -2.96,1.17 -6.13,1.7 -9.5,1.6 -3.37,-0.1 -6.78,-0.9 -10.23,-2.37 -3.45,-1.47 -6.38,-3.4 -8.78,-5.76 -2.4,-2.36 -4.21,-5.02 -5.42,-7.97 -1.21,-2.95 -1.78,-6.11 -1.71,-9.49 0.07,-3.37 0.86,-6.81 2.35,-10.3 1.5,-3.5 3.44,-6.44 5.83,-8.83 2.39,-2.39 5.07,-4.17 8.05,-5.33 2.97,-1.16 6.14,-1.69 9.51,-1.59 3.35,0.11 6.76,0.9 10.22,2.37 z m -2.83,6.61 c -2.83,-1.21 -5.54,-1.9 -8.14,-2.06 -2.59,-0.17 -4.98,0.15 -7.16,0.94 -2.18,0.8 -4.13,2.05 -5.86,3.78 -1.73,1.72 -3.14,3.87 -4.23,6.44 -1.09,2.54 -1.66,5.04 -1.71,7.47 -0.05,2.44 0.38,4.73 1.31,6.86 0.93,2.14 2.35,4.08 4.26,5.84 1.91,1.76 4.28,3.24 7.12,4.45 2.83,1.21 5.54,1.9 8.12,2.06 2.59,0.16 4.97,-0.16 7.15,-0.97 2.18,-0.81 4.13,-2.07 5.85,-3.8 1.71,-1.73 3.12,-3.86 4.2,-6.41 1.1,-2.57 1.68,-5.07 1.74,-7.5 0.06,-2.43 -0.37,-4.71 -1.3,-6.84 -0.93,-2.12 -2.35,-4.07 -4.25,-5.82 -1.9,-1.75 -4.26,-3.23 -7.1,-4.44 z"
   id="path14"
   inkscape:connector-curvature="0"
   style="fill:#0606fc" />
	<path
   class="st0"
   d="m 362.8,390.74 c 0.17,0.37 0.26,0.71 0.28,1.01 0.01,0.3 -0.08,0.61 -0.3,0.93 -0.23,0.34 -0.65,0.63 -1.28,0.86 -0.63,0.23 -1.37,0.57 -2.22,1 -0.86,0.43 -1.77,1.02 -2.74,1.78 -0.98,0.76 -1.92,1.83 -2.83,3.21 -0.86,1.31 -1.45,2.57 -1.77,3.8 -0.32,1.23 -0.41,2.37 -0.27,3.43 0.14,1.06 0.49,2.02 1.06,2.88 0.56,0.86 1.3,1.59 2.22,2.2 1.17,0.77 2.33,1.11 3.49,1.03 1.16,-0.09 2.33,-0.44 3.52,-1.05 1.19,-0.61 2.39,-1.41 3.6,-2.38 1.21,-0.97 2.46,-1.97 3.75,-2.98 1.28,-1.01 2.6,-1.96 3.95,-2.84 1.35,-0.88 2.75,-1.54 4.21,-1.98 1.46,-0.43 2.98,-0.56 4.56,-0.37 1.58,0.19 3.23,0.86 4.97,2 1.83,1.21 3.34,2.66 4.52,4.36 1.18,1.7 1.96,3.56 2.34,5.58 0.38,2.02 0.31,4.15 -0.19,6.4 -0.5,2.25 -1.51,4.52 -3.02,6.81 -1.84,2.79 -4.01,5.02 -6.51,6.67 -2.5,1.65 -5.12,2.74 -7.87,3.27 l -1.58,-3.46 c -0.11,-0.3 -0.16,-0.62 -0.15,-0.94 0.01,-0.33 0.1,-0.63 0.29,-0.91 0.28,-0.42 0.82,-0.76 1.61,-1.01 0.8,-0.25 1.73,-0.62 2.79,-1.08 1.06,-0.47 2.19,-1.13 3.39,-2 1.2,-0.87 2.35,-2.13 3.45,-3.8 0.91,-1.39 1.54,-2.74 1.89,-4.07 0.34,-1.33 0.43,-2.59 0.26,-3.79 -0.18,-1.2 -0.6,-2.3 -1.27,-3.32 -0.67,-1.02 -1.58,-1.9 -2.73,-2.66 -1.27,-0.83 -2.5,-1.22 -3.7,-1.16 -1.2,0.06 -2.39,0.39 -3.57,1 -1.18,0.61 -2.37,1.4 -3.57,2.39 -1.19,0.99 -2.41,2 -3.67,3.03 -1.25,1.03 -2.55,1.99 -3.89,2.88 -1.34,0.89 -2.75,1.54 -4.22,1.95 -1.47,0.41 -3.03,0.5 -4.68,0.26 -1.65,-0.23 -3.39,-0.96 -5.25,-2.18 -1.48,-0.98 -2.72,-2.21 -3.71,-3.72 -0.99,-1.5 -1.65,-3.17 -1.99,-5 -0.33,-1.83 -0.27,-3.79 0.18,-5.87 0.45,-2.08 1.38,-4.2 2.8,-6.35 1.59,-2.41 3.41,-4.37 5.46,-5.87 2.05,-1.5 4.27,-2.53 6.65,-3.1 z"
   id="path16"
   inkscape:connector-curvature="0"
   style="fill:#0606fc" />
	<path
   class="st0"
   d="m 398.29,336.17 4.09,3.72 -16.7,18.38 12.33,11.2 13.52,-14.88 3.94,3.58 -13.52,14.88 12.66,11.51 16.7,-18.38 4.09,3.72 -21.44,23.59 -37.11,-33.73 z"
   id="path18"
   inkscape:connector-curvature="0"
   style="fill:#0606fc" />
	<path
   class="st0"
   d="m 446.37,332.11 12.93,16.46 -5.48,4.3 -30.99,-39.43 11.49,-9.03 c 2.57,-2.02 4.99,-3.52 7.27,-4.49 2.27,-0.97 4.39,-1.45 6.36,-1.46 1.97,-0.01 3.78,0.43 5.42,1.32 1.65,0.89 3.13,2.17 4.44,3.84 1.09,1.39 1.89,2.87 2.39,4.44 0.49,1.57 0.69,3.17 0.59,4.81 -0.1,1.64 -0.51,3.29 -1.21,4.94 -0.7,1.65 -1.71,3.27 -3,4.85 0.98,-0.15 2.03,-0.07 3.14,0.25 l 24.17,6.33 -4.88,3.84 c -1.01,0.79 -2.04,0.99 -3.1,0.61 l -21.63,-5.79 c -0.67,-0.19 -1.27,-0.23 -1.8,-0.13 -0.53,0.11 -1.17,0.46 -1.93,1.05 z m -3.05,-3.88 5.76,-4.53 c 1.61,-1.26 2.88,-2.56 3.8,-3.9 0.92,-1.33 1.53,-2.67 1.81,-4 0.28,-1.33 0.26,-2.64 -0.08,-3.92 -0.34,-1.28 -0.95,-2.5 -1.86,-3.66 -1.84,-2.35 -4.04,-3.49 -6.57,-3.43 -2.53,0.07 -5.38,1.34 -8.54,3.82 l -6.02,4.73 z"
   id="path20"
   inkscape:connector-curvature="0"
   style="fill:#0606fc" />
	<path
   class="st0"
   d="m 473.39,276.22 4.94,-2.63 c 0.55,-0.29 1.07,-0.4 1.55,-0.31 0.48,0.09 0.92,0.29 1.31,0.61 l 29.52,24.38 c 0.67,0.54 1.35,1.16 2.03,1.86 0.68,0.69 1.38,1.42 2.08,2.18 -0.28,-0.99 -0.53,-1.95 -0.74,-2.9 -0.22,-0.94 -0.36,-1.84 -0.44,-2.7 l -3.76,-38.07 c -0.04,-0.43 0.04,-0.89 0.25,-1.38 0.2,-0.49 0.57,-0.88 1.1,-1.16 l 4.97,-2.65 4.92,54.18 -5.58,2.97 z"
   id="path22"
   inkscape:connector-curvature="0"
   style="fill:#0606fc" />
	<path
   class="st0"
   d="m 567.23,287.76 -6.59,2.36 -16.93,-47.2 6.59,-2.36 z"
   id="path24"
   inkscape:connector-curvature="0"
   style="fill:#0606fc" />
	<path
   class="st0"
   d="m 627.61,261.8 c 0.38,-0.08 0.75,0 1.12,0.24 l 3.27,2.3 c -1.6,2.75 -3.75,5.08 -6.45,6.98 -2.7,1.9 -6.13,3.28 -10.3,4.12 -3.66,0.74 -7.09,0.8 -10.32,0.18 -3.22,-0.62 -6.1,-1.82 -8.65,-3.6 -2.55,-1.78 -4.71,-4.1 -6.49,-6.95 -1.78,-2.85 -3.05,-6.13 -3.8,-9.83 -0.75,-3.71 -0.82,-7.23 -0.21,-10.57 0.61,-3.34 1.81,-6.34 3.61,-9.01 1.79,-2.67 4.13,-4.94 7,-6.79 2.88,-1.86 6.2,-3.17 9.98,-3.93 3.73,-0.75 7.06,-0.84 9.98,-0.27 2.93,0.57 5.63,1.61 8.12,3.1 l -1.61,3.5 c -0.11,0.26 -0.27,0.49 -0.45,0.68 -0.18,0.19 -0.47,0.33 -0.87,0.41 -0.31,0.06 -0.65,0.02 -1.04,-0.13 -0.38,-0.15 -0.85,-0.33 -1.38,-0.56 -0.54,-0.23 -1.16,-0.46 -1.87,-0.69 -0.71,-0.24 -1.54,-0.43 -2.48,-0.57 -0.94,-0.14 -2.01,-0.21 -3.2,-0.19 -1.2,0.02 -2.55,0.18 -4.06,0.48 -2.71,0.55 -5.1,1.5 -7.17,2.86 -2.07,1.36 -3.75,3.04 -5.04,5.04 -1.29,2 -2.14,4.29 -2.57,6.87 -0.42,2.59 -0.33,5.37 0.27,8.34 0.62,3.06 1.63,5.71 3.02,7.92 1.39,2.22 3.04,4 4.95,5.33 1.91,1.34 4.02,2.23 6.34,2.66 2.33,0.43 4.73,0.4 7.2,-0.1 1.51,-0.31 2.85,-0.67 4.02,-1.08 1.17,-0.41 2.23,-0.91 3.18,-1.48 0.95,-0.57 1.81,-1.23 2.59,-1.97 0.77,-0.74 1.52,-1.59 2.26,-2.55 0.32,-0.42 0.67,-0.67 1.05,-0.74 z"
   id="path26"
   inkscape:connector-curvature="0"
   style="fill:#0606fc" />
	<path
   class="st0"
   d="m 687.27,218.11 0.15,5.53 -24.82,0.71 0.47,16.65 20.1,-0.57 0.15,5.32 -20.1,0.57 0.49,17.11 24.83,-0.71 0.15,5.53 -31.86,0.91 -1.43,-50.13 z"
   id="path28"
   inkscape:connector-curvature="0"
   style="fill:#0606fc" />
	<path
   class="st0"
   d="m 744.51,231.11 c -0.26,0.32 -0.52,0.55 -0.78,0.69 -0.26,0.14 -0.58,0.19 -0.97,0.14 -0.41,-0.05 -0.85,-0.31 -1.34,-0.77 -0.49,-0.46 -1.12,-0.98 -1.88,-1.56 -0.76,-0.58 -1.7,-1.14 -2.81,-1.68 -1.11,-0.54 -2.48,-0.92 -4.13,-1.13 -1.55,-0.2 -2.95,-0.17 -4.19,0.09 -1.25,0.25 -2.31,0.68 -3.2,1.27 -0.89,0.59 -1.59,1.33 -2.12,2.22 -0.53,0.88 -0.86,1.87 -0.99,2.96 -0.18,1.39 0.03,2.58 0.62,3.59 0.59,1 1.42,1.9 2.5,2.7 1.08,0.79 2.32,1.52 3.72,2.18 1.41,0.66 2.85,1.34 4.33,2.05 1.47,0.7 2.91,1.47 4.29,2.29 1.39,0.82 2.6,1.79 3.64,2.91 1.03,1.12 1.81,2.43 2.34,3.93 0.53,1.5 0.66,3.28 0.4,5.34 -0.28,2.18 -0.92,4.17 -1.92,5.98 -1.01,1.81 -2.33,3.33 -3.98,4.56 -1.65,1.23 -3.59,2.11 -5.83,2.65 -2.24,0.54 -4.72,0.64 -7.44,0.29 -3.32,-0.42 -6.27,-1.39 -8.86,-2.9 -2.59,-1.52 -4.72,-3.39 -6.4,-5.63 l 2.41,-2.94 c 0.22,-0.23 0.48,-0.42 0.78,-0.55 0.3,-0.14 0.61,-0.19 0.95,-0.15 0.5,0.06 1.04,0.4 1.62,1 0.58,0.6 1.31,1.28 2.2,2.03 0.89,0.75 1.99,1.47 3.29,2.16 1.31,0.69 2.95,1.17 4.93,1.42 1.65,0.21 3.15,0.18 4.49,-0.1 1.35,-0.28 2.51,-0.76 3.51,-1.44 1,-0.69 1.8,-1.55 2.42,-2.6 0.62,-1.05 1.01,-2.26 1.19,-3.62 0.19,-1.5 -0.01,-2.78 -0.59,-3.83 -0.59,-1.05 -1.41,-1.97 -2.47,-2.76 -1.06,-0.79 -2.3,-1.51 -3.72,-2.15 -1.41,-0.64 -2.85,-1.29 -4.33,-1.96 -1.48,-0.67 -2.92,-1.41 -4.31,-2.22 -1.39,-0.81 -2.59,-1.79 -3.61,-2.93 -1.02,-1.14 -1.79,-2.5 -2.3,-4.08 -0.51,-1.58 -0.63,-3.47 -0.35,-5.67 0.23,-1.76 0.79,-3.42 1.7,-4.97 0.91,-1.55 2.12,-2.88 3.62,-3.99 1.5,-1.1 3.28,-1.91 5.35,-2.43 2.06,-0.51 4.38,-0.61 6.93,-0.29 2.86,0.36 5.42,1.14 7.67,2.31 2.25,1.18 4.16,2.71 5.71,4.6 z"
   id="path30"
   inkscape:connector-curvature="0"
   style="fill:#0606fc" />
	<path
   class="st0"
   d="m 839.39,250.56 -1.96,5.17 -23.22,-8.82 -6.22,16.39 19.84,7.54 -1.96,5.17 -19.84,-7.54 -7.66,20.15 -6.58,-2.5 17.8,-46.88 z"
   id="path32"
   inkscape:connector-curvature="0"
   style="fill:#0606fc" />
	<path
   class="st0"
   d="m 859.69,293.35 -10.58,18.06 -6.01,-3.52 25.34,-43.28 12.62,7.39 c 2.82,1.65 5.1,3.36 6.83,5.12 1.73,1.76 2.96,3.55 3.68,5.38 0.73,1.83 0.98,3.68 0.76,5.53 -0.23,1.86 -0.87,3.7 -1.95,5.53 -0.9,1.53 -1.98,2.81 -3.26,3.85 -1.28,1.04 -2.7,1.81 -4.26,2.31 -1.57,0.5 -3.25,0.73 -5.04,0.68 -1.8,-0.05 -3.67,-0.39 -5.62,-1.02 0.5,0.86 0.81,1.86 0.92,3.01 l 2.96,24.81 -5.36,-3.14 c -1.1,-0.64 -1.67,-1.53 -1.7,-2.66 l -2.54,-22.25 c -0.07,-0.69 -0.25,-1.26 -0.54,-1.72 -0.29,-0.46 -0.85,-0.93 -1.68,-1.41 z m 2.49,-4.26 6.33,3.7 c 1.76,1.03 3.44,1.74 5.02,2.11 1.58,0.37 3.04,0.45 4.39,0.22 1.35,-0.23 2.55,-0.73 3.62,-1.51 1.07,-0.78 1.98,-1.8 2.72,-3.07 1.51,-2.58 1.77,-5.03 0.78,-7.37 -0.99,-2.34 -3.22,-4.52 -6.68,-6.55 l -6.61,-3.87 z"
   id="path34"
   inkscape:connector-curvature="0"
   style="fill:#0606fc" />
	<path
   class="st0"
   d="m 925.94,367.72 -4.12,-3.52 c -0.47,-0.41 -0.76,-0.85 -0.86,-1.33 -0.1,-0.48 -0.07,-0.96 0.09,-1.44 l 4.19,-12.35 -17.63,-15.08 -11.54,6.06 c -0.4,0.21 -0.86,0.3 -1.39,0.29 -0.53,-0.02 -1.01,-0.22 -1.47,-0.61 l -4.12,-3.52 48.31,-24.69 5.41,4.62 z m -13.67,-36.17 14.68,12.55 7.08,-20.79 c 0.41,-1.3 1.05,-2.83 1.89,-4.6 -0.83,0.55 -1.59,1.06 -2.31,1.5 -0.71,0.45 -1.36,0.83 -1.94,1.13 z"
   id="path36"
   inkscape:connector-curvature="0"
   style="fill:#0606fc" />
	<path
   class="st0"
   d="m 969.55,393.44 c -0.34,0.58 -0.68,1.16 -1.03,1.73 0.66,-0.21 1.31,-0.39 1.95,-0.55 0.63,-0.15 1.29,-0.28 1.98,-0.39 l 35.1,-5.01 c 0.62,-0.08 1.07,-0.02 1.37,0.17 0.3,0.19 0.64,0.54 1.02,1.03 l 3.15,4.08 -39.67,30.68 -3.75,-4.85 29.15,-22.54 c 0.39,-0.3 0.81,-0.61 1.27,-0.94 0.45,-0.32 0.93,-0.64 1.42,-0.96 l -35.65,5.16 c -1.2,0.17 -2.13,-0.18 -2.79,-1.04 l -0.62,-0.8 c -0.66,-0.86 -0.76,-1.84 -0.3,-2.96 l 13.81,-33.58 c -0.44,0.43 -0.87,0.84 -1.31,1.22 -0.44,0.39 -0.85,0.73 -1.24,1.03 l -29.15,22.54 -3.75,-4.86 39.67,-30.68 3.15,4.08 c 0.38,0.5 0.63,0.91 0.75,1.25 0.11,0.34 0.05,0.79 -0.18,1.37 l -13.49,33.02 c -0.24,0.63 -0.52,1.22 -0.86,1.8 z"
   id="path38"
   inkscape:connector-curvature="0"
   style="fill:#0606fc" />
	<path
   class="st0"
   d="m 1045.71,454.61 -4.95,2.47 -11.08,-22.23 -14.91,7.43 8.97,18 -4.76,2.37 -8.97,-18 -15.32,7.63 11.08,22.23 -4.95,2.47 -14.22,-28.53 44.89,-22.37 z"
   id="path40"
   inkscape:connector-curvature="0"
   style="fill:#0606fc" />
	<path
   class="st0"
   d="m 1057.74,481.02 1.46,5.62 c 0.16,0.61 0.14,1.14 -0.05,1.62 -0.19,0.47 -0.49,0.84 -0.91,1.09 l -31.04,19.12 c -0.56,0.34 -1.17,0.68 -1.84,1.02 -0.66,0.33 -1.35,0.67 -2.09,1.01 0.81,-0.04 1.59,-0.07 2.35,-0.09 0.75,-0.02 1.45,0 2.09,0.05 l 36.8,3 c 0.42,0.04 0.85,0.22 1.28,0.54 0.43,0.32 0.73,0.77 0.88,1.36 l 0.51,1.96 c 0.16,0.6 0.14,1.14 -0.05,1.6 -0.19,0.46 -0.49,0.83 -0.9,1.11 l -30.69,20.48 c -1.07,0.73 -2.31,1.45 -3.74,2.17 0.78,-0.06 1.53,-0.11 2.24,-0.17 0.71,-0.06 1.38,-0.07 2.01,-0.04 l 36.44,1.6 c 0.44,0.01 0.86,0.18 1.29,0.5 0.42,0.33 0.71,0.78 0.86,1.36 l 1.37,5.27 -52.6,-2.99 -1.58,-6.08 33.72,-22.31 c 0.63,-0.44 1.38,-0.88 2.25,-1.33 -0.48,0 -0.94,0 -1.39,0.01 -0.45,0 -0.85,-0.01 -1.22,-0.04 l -40.34,-3.12 -1.58,-6.08 z"
   id="path42"
   inkscape:connector-curvature="0"
   style="fill:#0606fc" />
	<path
   class="st0"
   d="m 1055.11,632.39 c -3.75,0.1 -7.22,-0.43 -10.39,-1.57 -3.17,-1.15 -5.91,-2.81 -8.23,-4.99 -2.32,-2.18 -4.14,-4.82 -5.47,-7.93 -1.33,-3.11 -2.04,-6.56 -2.14,-10.36 -0.1,-3.8 0.44,-7.28 1.61,-10.44 1.16,-3.16 2.85,-5.89 5.06,-8.18 2.21,-2.29 4.86,-4.1 7.96,-5.4 3.1,-1.3 6.53,-2.01 10.29,-2.1 3.75,-0.1 7.21,0.43 10.38,1.57 3.17,1.15 5.92,2.81 8.25,4.99 2.33,2.18 4.17,4.81 5.51,7.91 1.34,3.09 2.06,6.54 2.16,10.34 0.1,3.8 -0.44,7.29 -1.62,10.46 -1.18,3.17 -2.88,5.91 -5.1,8.2 -2.21,2.29 -4.88,4.1 -7.98,5.4 -3.1,1.3 -6.53,2 -10.29,2.1 z m -0.18,-7.18 c 3.08,-0.08 5.83,-0.58 8.26,-1.51 2.43,-0.93 4.47,-2.21 6.12,-3.84 1.65,-1.63 2.9,-3.59 3.75,-5.88 0.85,-2.29 1.24,-4.82 1.17,-7.61 -0.07,-2.77 -0.59,-5.27 -1.56,-7.51 -0.97,-2.24 -2.32,-4.13 -4.05,-5.69 -1.73,-1.56 -3.83,-2.74 -6.31,-3.54 -2.47,-0.8 -5.25,-1.16 -8.33,-1.09 -3.08,0.08 -5.82,0.58 -8.24,1.51 -2.42,0.93 -4.45,2.21 -6.1,3.86 -1.65,1.65 -2.89,3.61 -3.74,5.89 -0.84,2.28 -1.22,4.81 -1.15,7.58 0.07,2.79 0.59,5.3 1.54,7.54 0.95,2.24 2.3,4.13 4.03,5.67 1.73,1.54 3.83,2.72 6.29,3.53 2.47,0.81 5.24,1.17 8.32,1.09 z"
   id="path44"
   inkscape:connector-curvature="0"
   style="fill:#0606fc" />
	<path
   class="st0"
   d="m 1050.46,664.73 h -20.93 v -6.97 h 50.15 v 14.62 c 0,3.27 -0.32,6.1 -0.96,8.48 -0.64,2.38 -1.57,4.35 -2.78,5.9 -1.21,1.55 -2.67,2.7 -4.39,3.45 -1.72,0.75 -3.64,1.12 -5.76,1.12 -1.77,0 -3.43,-0.29 -4.97,-0.87 -1.54,-0.57 -2.92,-1.41 -4.15,-2.51 -1.23,-1.09 -2.27,-2.43 -3.13,-4.01 -0.86,-1.58 -1.52,-3.37 -1.96,-5.36 -0.49,0.86 -1.2,1.64 -2.14,2.31 l -19.91,15.09 v -6.21 c 0,-1.28 0.48,-2.21 1.43,-2.82 l 17.92,-13.43 c 0.56,-0.41 0.96,-0.85 1.21,-1.33 0.24,-0.49 0.37,-1.2 0.37,-2.17 z m 4.93,0 v 7.33 c 0,2.04 0.24,3.84 0.71,5.4 0.48,1.55 1.16,2.85 2.03,3.9 0.87,1.05 1.92,1.83 3.13,2.36 1.21,0.53 2.55,0.79 4.02,0.79 2.99,0 5.24,-1.02 6.76,-3.05 1.52,-2.03 2.28,-5.06 2.28,-9.08 v -7.66 h -18.93 z"
   id="path46"
   inkscape:connector-curvature="0"
   style="fill:#0606fc" />
	<path
   class="st0"
   d="m 1057.7,725.66 v 2.63 c 0,0.91 0.11,1.64 0.33,2.18 0.22,0.54 0.6,1.05 1.14,1.53 l 18.9,17.22 c 0.58,0.53 1,1.04 1.24,1.54 0.24,0.49 0.37,1.13 0.37,1.89 v 5.96 l -21.59,-19.71 c -0.53,-0.5 -0.99,-0.98 -1.36,-1.43 -0.38,-0.45 -0.68,-0.92 -0.91,-1.43 -0.21,0.67 -0.53,1.26 -0.94,1.77 -0.42,0.5 -0.95,1.03 -1.58,1.59 l -23.76,20.57 v -6.06 c 0,-0.46 0.04,-0.84 0.11,-1.16 0.07,-0.31 0.16,-0.58 0.28,-0.81 0.12,-0.23 0.27,-0.44 0.45,-0.63 0.19,-0.19 0.39,-0.39 0.6,-0.58 l 19.91,-17.87 c 0.28,-0.26 0.52,-0.51 0.72,-0.74 0.2,-0.23 0.37,-0.49 0.51,-0.79 0.14,-0.3 0.24,-0.65 0.3,-1.05 0.06,-0.4 0.09,-0.89 0.09,-1.46 v -3.17 h -22.96 v -6.97 h 50.15 v 6.97 h -22 z"
   id="path48"
   inkscape:connector-curvature="0"
   style="fill:#0606fc" />
	<path
   class="st0"
   d="m 1050.98,788 c 1.1,0 2.13,0.22 3.1,0.65 0.97,0.43 1.81,1.01 2.54,1.75 0.72,0.73 1.3,1.59 1.72,2.56 0.42,0.98 0.63,2.02 0.63,3.12 0,1.13 -0.21,2.2 -0.63,3.19 -0.42,1 -0.99,1.87 -1.72,2.62 -0.73,0.75 -1.57,1.34 -2.54,1.77 -0.97,0.44 -2,0.65 -3.1,0.65 -1.07,0 -2.08,-0.22 -3.03,-0.65 -0.94,-0.43 -1.77,-1.02 -2.48,-1.77 -0.71,-0.75 -1.28,-1.61 -1.7,-2.62 -0.42,-1 -0.63,-2.06 -0.63,-3.19 0,-1.11 0.21,-2.15 0.63,-3.12 0.42,-0.97 0.99,-1.83 1.7,-2.56 0.71,-0.74 1.54,-1.32 2.48,-1.75 0.95,-0.43 1.96,-0.65 3.03,-0.65 z"
   id="path50"
   inkscape:connector-curvature="0"
   style="fill:#0606fc" />
</g>
<g
   id="g68"
   transform="translate(-282.16325,-217.11)">
	<path
   class="st0"
   d="m 466.05,962.83 c 0.79,0 1.58,0.15 2.37,0.44 0.79,0.3 1.54,0.81 2.27,1.53 l 13.21,13.9 c -5.78,7.56 -13.03,13.26 -21.74,17.1 -8.71,3.84 -19.01,5.77 -30.9,5.77 -10.91,0 -20.69,-1.86 -29.33,-5.57 -8.64,-3.71 -15.97,-8.84 -21.98,-15.38 -6.01,-6.54 -10.63,-14.29 -13.85,-23.26 -3.22,-8.97 -4.83,-18.71 -4.83,-29.23 0,-10.71 1.84,-20.55 5.52,-29.52 3.68,-8.97 8.82,-16.71 15.43,-23.21 6.6,-6.51 14.51,-11.57 23.71,-15.18 9.2,-3.61 19.35,-5.42 30.46,-5.42 5.39,0 10.46,0.48 15.23,1.43 4.76,0.95 9.22,2.27 13.36,3.94 4.14,1.68 7.95,3.68 11.43,6.01 3.48,2.33 6.57,4.91 9.27,7.74 L 474.44,889 c -0.72,0.92 -1.58,1.76 -2.56,2.51 -0.99,0.76 -2.37,1.13 -4.14,1.13 -1.18,0 -2.3,-0.26 -3.35,-0.79 -1.05,-0.53 -2.17,-1.17 -3.35,-1.92 -1.18,-0.75 -2.48,-1.58 -3.89,-2.46 -1.41,-0.89 -3.09,-1.71 -5.03,-2.46 -1.94,-0.75 -4.21,-1.39 -6.8,-1.92 -2.6,-0.53 -5.64,-0.79 -9.12,-0.79 -6.05,0 -11.57,1.07 -16.56,3.2 -4.99,2.14 -9.28,5.19 -12.86,9.17 -3.58,3.98 -6.37,8.79 -8.38,14.44 -2.01,5.65 -3.01,11.99 -3.01,19.02 0,7.36 1,13.9 3.01,19.62 2,5.72 4.73,10.53 8.18,14.44 3.45,3.91 7.47,6.88 12.08,8.92 4.6,2.04 9.53,3.06 14.79,3.06 3.02,0 5.78,-0.15 8.28,-0.44 2.5,-0.3 4.81,-0.8 6.95,-1.53 2.13,-0.72 4.17,-1.66 6.11,-2.81 1.94,-1.15 3.89,-2.58 5.86,-4.29 0.79,-0.66 1.64,-1.2 2.56,-1.63 0.9,-0.43 1.85,-0.64 2.84,-0.64 z"
   id="path54"
   inkscape:connector-curvature="0"
   style="fill:#0606fc" />
	<path
   class="st0"
   d="M 499.07,999.99 V 897.77 h 18.14 c 1.51,0 2.78,0.13 3.79,0.39 1.02,0.26 1.87,0.67 2.56,1.23 0.69,0.56 1.22,1.3 1.58,2.22 0.36,0.92 0.67,2.04 0.94,3.35 l 1.68,9.56 c 3.75,-5.78 7.95,-10.35 12.62,-13.7 4.67,-3.35 9.76,-5.03 15.28,-5.03 4.67,0 8.41,1.12 11.24,3.35 l -3.94,22.48 c -0.26,1.38 -0.79,2.35 -1.58,2.91 -0.79,0.56 -1.84,0.84 -3.15,0.84 -1.12,0 -2.43,-0.15 -3.94,-0.44 -1.51,-0.3 -3.42,-0.44 -5.72,-0.44 -8.02,0 -14.33,4.27 -18.93,12.81 v 62.69 z"
   id="path56"
   inkscape:connector-curvature="0"
   style="fill:#0606fc" />
	<path
   class="st0"
   d="m 615.59,869.77 c 0,2.43 -0.49,4.72 -1.48,6.85 -0.99,2.14 -2.33,4.01 -4.04,5.62 -1.71,1.61 -3.7,2.89 -5.96,3.84 -2.27,0.95 -4.68,1.43 -7.24,1.43 -2.5,0 -4.83,-0.47 -7,-1.43 -2.17,-0.95 -4.09,-2.23 -5.77,-3.84 -1.68,-1.61 -2.99,-3.48 -3.94,-5.62 -0.95,-2.14 -1.43,-4.42 -1.43,-6.85 0,-2.5 0.48,-4.83 1.43,-7 0.95,-2.17 2.27,-4.07 3.94,-5.72 1.68,-1.64 3.6,-2.92 5.77,-3.84 2.17,-0.92 4.5,-1.38 7,-1.38 2.56,0 4.98,0.46 7.24,1.38 2.27,0.92 4.25,2.2 5.96,3.84 1.71,1.64 3.06,3.55 4.04,5.72 0.98,2.17 1.48,4.51 1.48,7 z m -3.55,28 V 999.99 H 581.48 V 897.77 Z"
   id="path58"
   inkscape:connector-curvature="0"
   style="fill:#0606fc" />
	<path
   class="st0"
   d="m 710.41,922.02 c -0.92,1.12 -1.81,2.01 -2.66,2.66 -0.85,0.66 -2.07,0.99 -3.65,0.99 -1.51,0 -2.88,-0.36 -4.09,-1.08 -1.22,-0.72 -2.58,-1.53 -4.09,-2.42 -1.51,-0.89 -3.29,-1.69 -5.32,-2.42 -2.04,-0.72 -4.57,-1.08 -7.59,-1.08 -3.75,0 -6.98,0.69 -9.71,2.07 -2.73,1.38 -4.98,3.35 -6.75,5.91 -1.77,2.56 -3.09,5.7 -3.94,9.41 -0.85,3.71 -1.28,7.9 -1.28,12.57 0,9.79 1.89,17.32 5.67,22.57 3.78,5.26 8.99,7.89 15.62,7.89 3.55,0 6.36,-0.44 8.43,-1.33 2.07,-0.89 3.83,-1.87 5.27,-2.96 1.44,-1.08 2.78,-2.08 3.99,-3.01 1.22,-0.92 2.74,-1.38 4.58,-1.38 2.43,0 4.27,0.89 5.52,2.66 l 8.87,10.94 c -3.15,3.61 -6.47,6.56 -9.96,8.82 -3.48,2.27 -7.05,4.04 -10.7,5.32 -3.65,1.28 -7.31,2.17 -10.99,2.66 -3.68,0.49 -7.26,0.74 -10.74,0.74 -6.24,0 -12.21,-1.18 -17.89,-3.55 -5.68,-2.37 -10.68,-5.8 -14.98,-10.3 -4.3,-4.5 -7.72,-10.04 -10.25,-16.61 -2.53,-6.57 -3.8,-14.06 -3.8,-22.48 0,-7.36 1.1,-14.24 3.3,-20.65 2.2,-6.41 5.45,-11.96 9.76,-16.66 4.3,-4.7 9.63,-8.39 15.97,-11.09 6.34,-2.69 13.69,-4.04 22.03,-4.04 8.02,0 15.05,1.28 21.09,3.84 6.05,2.56 11.5,6.31 16.36,11.24 z"
   id="path60"
   inkscape:connector-curvature="0"
   style="fill:#0606fc" />
	<path
   class="st0"
   d="m 763.05,852.42 v 82.7 h 4.53 c 1.91,0 3.37,-0.26 4.39,-0.79 1.02,-0.53 1.99,-1.48 2.91,-2.86 l 19.32,-28.78 c 1.12,-1.71 2.45,-2.96 3.99,-3.75 1.54,-0.79 3.5,-1.18 5.87,-1.18 h 27.99 l -26.42,36.37 c -1.25,1.71 -2.61,3.22 -4.09,4.53 -1.48,1.32 -3.07,2.5 -4.78,3.55 2.96,2.23 5.52,5.19 7.69,8.87 l 28.78,48.89 h -27.6 c -2.3,0 -4.29,-0.38 -5.96,-1.13 -1.68,-0.75 -3.04,-2.09 -4.09,-3.99 l -19.32,-36.18 c -0.92,-1.64 -1.87,-2.71 -2.86,-3.2 -0.99,-0.49 -2.46,-0.74 -4.44,-0.74 h -5.91 v 45.25 H 732.49 V 852.42 Z"
   id="path62"
   inkscape:connector-curvature="0"
   style="fill:#0606fc" />
	<path
   class="st0"
   d="m 883.9,896.19 c 6.77,0 12.96,1.05 18.58,3.15 5.62,2.1 10.45,5.16 14.49,9.17 4.04,4.01 7.2,8.92 9.46,14.74 2.27,5.82 3.4,12.41 3.4,19.76 0,2.3 -0.1,4.17 -0.3,5.62 -0.2,1.45 -0.56,2.6 -1.08,3.45 -0.53,0.86 -1.23,1.45 -2.12,1.78 -0.89,0.33 -2.02,0.49 -3.4,0.49 h -58.95 c 0.99,8.54 3.58,14.74 7.79,18.58 4.21,3.84 9.63,5.77 16.27,5.77 3.55,0 6.6,-0.43 9.17,-1.28 2.56,-0.85 4.85,-1.81 6.85,-2.86 2,-1.05 3.84,-2 5.52,-2.86 1.68,-0.85 3.43,-1.28 5.27,-1.28 2.43,0 4.27,0.89 5.52,2.66 l 8.87,10.94 c -3.15,3.61 -6.56,6.56 -10.2,8.82 -3.64,2.26 -7.39,4.04 -11.24,5.32 -3.84,1.28 -7.69,2.17 -11.53,2.66 -3.84,0.49 -7.51,0.74 -10.99,0.74 -7.16,0 -13.88,-1.17 -20.16,-3.5 -6.28,-2.33 -11.76,-5.8 -16.46,-10.4 -4.7,-4.6 -8.41,-10.32 -11.14,-17.15 -2.73,-6.83 -4.09,-14.79 -4.09,-23.85 0,-6.83 1.17,-13.31 3.5,-19.42 2.33,-6.11 5.68,-11.47 10.05,-16.07 4.37,-4.6 9.66,-8.25 15.87,-10.94 6.21,-2.69 13.23,-4.04 21.05,-4.04 z m 0.59,21.1 c -5.85,0 -10.42,1.66 -13.7,4.98 -3.29,3.32 -5.46,8.1 -6.51,14.34 h 38.15 c 0,-2.43 -0.31,-4.8 -0.94,-7.1 -0.63,-2.3 -1.64,-4.35 -3.06,-6.16 -1.41,-1.81 -3.27,-3.27 -5.57,-4.39 -2.29,-1.12 -5.08,-1.67 -8.37,-1.67 z"
   id="path64"
   inkscape:connector-curvature="0"
   style="fill:#0606fc" />
	<path
   class="st0"
   d="m 983.26,1001.57 c -4.86,0 -9.15,-0.71 -12.86,-2.12 -3.71,-1.41 -6.84,-3.42 -9.36,-6.01 -2.53,-2.59 -4.45,-5.73 -5.77,-9.41 -1.32,-3.68 -1.97,-7.79 -1.97,-12.32 v -52.84 h -8.67 c -1.58,0 -2.93,-0.51 -4.04,-1.53 -1.12,-1.02 -1.68,-2.51 -1.68,-4.48 v -11.93 l 16.26,-3.15 6.01,-24.94 c 0.79,-3.15 3.02,-4.73 6.7,-4.73 h 15.97 v 29.87 h 24.84 v 20.9 h -24.84 v 50.77 c 0,2.37 0.57,4.32 1.72,5.86 1.15,1.55 2.81,2.32 4.98,2.32 1.12,0 2.05,-0.11 2.81,-0.34 0.76,-0.23 1.41,-0.49 1.97,-0.79 0.56,-0.3 1.08,-0.56 1.58,-0.79 0.49,-0.23 1.07,-0.35 1.73,-0.35 0.92,0 1.66,0.21 2.22,0.64 0.56,0.43 1.13,1.1 1.73,2.02 l 9.27,14.49 c -3.94,2.96 -8.38,5.17 -13.31,6.65 -4.94,1.47 -10.03,2.21 -15.29,2.21 z"
   id="path66"
   inkscape:connector-curvature="0"
   style="fill:#0606fc" />
</g>
<g
   id="g100"
   transform="translate(-282.16325,-217.11)">
	<g
   id="g72">
		<path
   class="st0"
   d="m 501.73,701.14 -19.43,-43.84 18.44,-38.56 20.39,37.89 z m -9.22,-43.69 9.15,20.65 9.17,-21.04 -9.6,-17.84 z"
   id="path70"
   inkscape:connector-curvature="0"
   style="fill:#0606fc" />
	</g>
	<g
   id="g76">
		<path
   class="st1"
   d="M 540.7,603.84"
   id="path74"
   inkscape:connector-curvature="0"
   style="fill:none;stroke:#0606fc;stroke-width:15;stroke-miterlimit:10" />
	</g>
	<g
   id="g80">
		<path
   class="st1"
   d="M 731.78,642.23"
   id="path78"
   inkscape:connector-curvature="0"
   style="fill:none;stroke:#0606fc;stroke-width:15;stroke-miterlimit:10" />
	</g>
	<g
   id="g84">
		<path
   class="st1"
   d="M 706.03,564.39"
   id="path82"
   inkscape:connector-curvature="0"
   style="fill:none;stroke:#0606fc;stroke-width:15;stroke-miterlimit:10" />
	</g>
	<g
   id="g88">
		<path
   class="st1"
   d="M 952.66,598.5"
   id="path86"
   inkscape:connector-curvature="0"
   style="fill:none;stroke:#0606fc;stroke-width:15;stroke-miterlimit:10" />
	</g>
	<g
   id="g92">
		<path
   class="st1"
   d="M 481.91,603.84"
   id="path90"
   inkscape:connector-curvature="0"
   style="fill:none;stroke:#0606fc;stroke-width:15;stroke-miterlimit:10" />
	</g>
	<path
   class="st0"
   d="m 875.65,728.86 -32.36,-53.19 134,-58.37 -17.55,-77.61 -70.04,-16.63 -115.95,38.35 -0.54,-0.88 -0.03,-0.05 -0.07,-0.12 c -0.03,-0.05 -0.47,-0.77 -1.19,-1.95 l -17.21,-28.29 -0.51,-0.82 -0.04,0.02 c -1.16,-1.84 -3.24,-2.93 -5.43,-2.85 -2.19,0.08 -4.12,1.31 -5.14,3.29 l -17.93,34.72 c -14.29,-29.23 -14.39,-29.4 -14.55,-29.66 -1.16,-1.88 -3.25,-2.99 -5.47,-2.91 -2.19,0.08 -4.11,1.31 -5.12,3.27 l -16.6,31.68 -10.83,-3.71 -118.49,41.07 -9.3,-25.09 -55.91,17.49 13.99,-37.06 251.35,-65.02 1.38,-0.36 19.49,-22.09 -6.95,-6.14 -17.61,19.96 -252.3,65.27 -2.33,0.6 -18.76,49.7 -22.9,58.33 20.57,47.19 -66.78,47.17 h -31.91 v 9.27 h 34.86 l 67.62,-47.76 10.99,25.22 52.97,17.62 10.57,-30.29 40.71,12.51 -43.58,41.54 h -31.53 v 9.27 h 35.24 l 51.23,-48.84 51.71,-16.83 8.37,18.85 35.94,-15.68 9.66,-22.39 31.02,12.92 21.44,-9.34 17.1,28.09 h 48.47 v -9.27 h -43.26 l -13.73,-22.56 62.28,-27.13 33.05,54.3 13.93,22.03 h 51.6 v -9.27 h -46.5 z M 705.84,545.05 c 3.82,7.81 10.65,21.77 14.53,29.71 l -2.02,3.91 -25.55,-8.75 z m -168.52,201.81 -40.37,-13.43 -32.15,-73.76 20.61,-52.07 54.26,-16.97 26.87,72.47 z m 116.32,-29.47 -50.41,16.41 -46.54,-14.31 19.7,-56.48 -18.56,-50.07 115.29,-39.96 40.94,14.02 -12.49,24.17 -52.26,96.47 z m 51.05,-18.58 -10.02,23.23 -24.13,10.53 -10.89,-24.53 50.11,-92.49 39.51,-76.49 c 3.4,5.57 8.97,14.7 12.69,20.79 l 2.06,3.38 z m 37.63,10.72 -27.24,-11.35 54.81,-125.27 59.94,98.5 z m 36.38,-139.99 111.42,-36.85 61.85,14.69 14.58,64.48 -128.13,55.81 z"
   id="path94"
   inkscape:connector-curvature="0"
   style="fill:#0606fc" />
	<g
   id="g98">
		<path
   class="st1"
   d="M 723.61,578.6"
   id="path96"
   inkscape:connector-curvature="0"
   style="fill:none;stroke:#0606fc;stroke-width:15;stroke-miterlimit:10" />
	</g>
</g>
</svg>