<?xml version="1.0" encoding="UTF-8" standalone="no"?>
<svg
   xmlns:dc="http://purl.org/dc/elements/1.1/"
   xmlns:cc="http://creativecommons.org/ns#"
   xmlns:rdf="http://www.w3.org/1999/02/22-rdf-syntax-ns#"
   xmlns:svg="http://www.w3.org/2000/svg"
   xmlns="http://www.w3.org/2000/svg"
   xmlns:xlink="http://www.w3.org/1999/xlink"
   xmlns:sodipodi="http://sodipodi.sourceforge.net/DTD/sodipodi-0.dtd"
   xmlns:inkscape="http://www.inkscape.org/namespaces/inkscape"
   viewBox="0 0 281.48999 294.10999"
   version="1.1"
   id="svg378"
   sodipodi:docname="cricket-head1.svg"
   inkscape:version="0.92.2 (5c3e80d, 2017-08-06)"
   width="281.48999"
   height="294.10999">
  <metadata
     id="metadata382">
    <rdf:RDF>
      <cc:Work
         rdf:about="">
        <dc:format>image/svg+xml</dc:format>
        <dc:type
           rdf:resource="http://purl.org/dc/dcmitype/StillImage" />
        <dc:title />
      </cc:Work>
    </rdf:RDF>
  </metadata>
  <sodipodi:namedview
     pagecolor="#ffffff"
     bordercolor="#666666"
     borderopacity="1"
     objecttolerance="10"
     gridtolerance="10"
     guidetolerance="10"
     inkscape:pageopacity="0"
     inkscape:pageshadow="2"
     inkscape:window-width="1920"
     inkscape:window-height="1016"
     id="namedview380"
     showgrid="false"
     inkscape:zoom="2"
     inkscape:cx="116.42008"
     inkscape:cy="148.86792"
     inkscape:window-x="0"
     inkscape:window-y="27"
     inkscape:window-maximized="1"
     inkscape:current-layer="svg378" />
  <defs
     id="defs170">
    <clipPath
       id="z">
      <path
         transform="matrix(1.0784,0,0,1.0784,-64.249,-25.963)"
         d="m 503.57,359.73 a 7.5446,11.205 0 1 1 -15.089,0 7.5446,11.205 0 1 1 15.089,0 z"
         id="path2"
         inkscape:connector-curvature="0" />
    </clipPath>
    <clipPath
       id="bh">
      <path
         d="m 559.95,313.57 c 10.374,1.3056 19.274,6.9815 25.573,15.282 -26.022,27.229 -31.387,55.495 -24.614,79.455 -4.1827,1.0055 -8.5545,1.3171 -12.978,0.76039 -22.66,-2.852 -38.359,-26.558 -35.042,-52.915 3.317,-26.357 24.4,-45.434 47.061,-42.582 z"
         id="path5"
         inkscape:connector-curvature="0" />
    </clipPath>
    <filter
       id="bg">
      <feGaussianBlur
         stdDeviation=".99447"
         id="feGaussianBlur8" />
    </filter>
    <filter
       id="w">
      <feGaussianBlur
         stdDeviation=".64503"
         id="feGaussianBlur11" />
    </filter>
    <filter
       id="bf">
      <feGaussianBlur
         stdDeviation=".5662"
         id="feGaussianBlur14" />
    </filter>
    <filter
       id="be">
      <feGaussianBlur
         stdDeviation="1.49005"
         id="feGaussianBlur17" />
    </filter>
    <filter
       id="e">
      <feGaussianBlur
         stdDeviation=".4939"
         id="feGaussianBlur20" />
    </filter>
    <filter
       id="v">
      <feGaussianBlur
         stdDeviation=".78469"
         id="feGaussianBlur23" />
    </filter>
    <filter
       id="u">
      <feGaussianBlur
         stdDeviation=".54609"
         id="feGaussianBlur26" />
    </filter>
    <filter
       id="bc">
      <feGaussianBlur
         stdDeviation="1.64045"
         id="feGaussianBlur29" />
    </filter>
    <filter
       id="bb">
      <feGaussianBlur
         stdDeviation="2.16115"
         id="feGaussianBlur32" />
    </filter>
    <filter
       id="ba">
      <feGaussianBlur
         stdDeviation="1.57123"
         id="feGaussianBlur35" />
    </filter>
    <filter
       id="t">
      <feGaussianBlur
         stdDeviation=".39294"
         id="feGaussianBlur38" />
    </filter>
    <filter
       id="s">
      <feGaussianBlur
         stdDeviation="1.55094"
         id="feGaussianBlur41" />
    </filter>
    <filter
       id="r">
      <feGaussianBlur
         stdDeviation="1.05077"
         id="feGaussianBlur44" />
    </filter>
    <filter
       id="q">
      <feGaussianBlur
         stdDeviation=".78808"
         id="feGaussianBlur47" />
    </filter>
    <filter
       id="p">
      <feGaussianBlur
         stdDeviation="1.48913"
         id="feGaussianBlur50" />
    </filter>
    <filter
       id="o">
      <feGaussianBlur
         stdDeviation="1.89711"
         id="feGaussianBlur53" />
    </filter>
    <filter
       id="az">
      <feGaussianBlur
         stdDeviation="1.45412"
         id="feGaussianBlur56" />
    </filter>
    <filter
       id="ay">
      <feGaussianBlur
         stdDeviation="1.47538"
         id="feGaussianBlur59" />
    </filter>
    <filter
       id="ax">
      <feGaussianBlur
         stdDeviation="1.36387"
         id="feGaussianBlur62" />
    </filter>
    <filter
       id="y"
       x="-0.1018"
       y="-0.068549998"
       width="1.2036"
       height="1.1371">
      <feGaussianBlur
         stdDeviation=".64006"
         id="feGaussianBlur65" />
    </filter>
    <filter
       id="x"
       x="-0.38925001"
       y="-0.26208001"
       width="1.7785"
       height="1.5242">
      <feGaussianBlur
         stdDeviation="2.44729"
         id="feGaussianBlur68" />
    </filter>
    <filter
       id="bd"
       x="-0.13770001"
       y="-0.10662"
       width="1.2754"
       height="1.2132">
      <feGaussianBlur
         stdDeviation="5.74113"
         id="feGaussianBlur71" />
    </filter>
    <linearGradient
       id="f">
      <stop
         stop-color="#fff"
         stop-opacity="0"
         offset="0"
         id="stop74" />
      <stop
         stop-color="#fff"
         stop-opacity="0"
         offset=".7"
         id="stop76" />
      <stop
         stop-color="#fff"
         stop-opacity=".60526"
         offset="1"
         id="stop78" />
    </linearGradient>
    <linearGradient
       id="a">
      <stop
         stop-color="#004c00"
         stop-opacity="0"
         offset="0"
         id="stop81" />
      <stop
         stop-color="#004c00"
         stop-opacity="0"
         offset=".7"
         id="stop83" />
      <stop
         stop-color="#004c00"
         stop-opacity=".6"
         offset="1"
         id="stop85" />
    </linearGradient>
    <linearGradient
       id="c">
      <stop
         stop-color="#004c00"
         offset="0"
         id="stop88" />
      <stop
         stop-color="#004c00"
         offset=".5"
         id="stop90" />
      <stop
         stop-color="#004c00"
         stop-opacity="0"
         offset="1"
         id="stop92" />
    </linearGradient>
    <linearGradient
       id="d">
      <stop
         stop-color="#fff"
         stop-opacity="0"
         offset="0"
         id="stop95" />
      <stop
         stop-color="#fff"
         stop-opacity="0"
         offset=".59468"
         id="stop97" />
      <stop
         stop-color="#fff"
         offset="1"
         id="stop99" />
    </linearGradient>
    <linearGradient
       id="n">
      <stop
         stop-color="#008000"
         offset="0"
         id="stop102" />
      <stop
         stop-color="#fff"
         stop-opacity="0"
         offset="1"
         id="stop104" />
    </linearGradient>
    <linearGradient
       id="b">
      <stop
         stop-color="#fff"
         offset="0"
         id="stop107" />
      <stop
         stop-color="#fff"
         stop-opacity="0"
         offset="1"
         id="stop109" />
    </linearGradient>
    <linearGradient
       id="av"
       x1="469.64001"
       x2="460.41"
       y1="528.03998"
       y2="522.70001"
       gradientUnits="userSpaceOnUse">
      <stop
         stop-color="#fff"
         stop-opacity="0"
         offset="0"
         id="stop112" />
      <stop
         stop-color="#fff"
         stop-opacity="0"
         offset=".5"
         id="stop114" />
      <stop
         stop-color="#fff"
         offset="1"
         id="stop116" />
    </linearGradient>
    <linearGradient
       id="m"
       x1="500.67001"
       x2="494.17001"
       y1="347.06"
       y2="363.32001"
       gradientUnits="userSpaceOnUse">
      <stop
         stop-color="#f4eed7"
         offset="0"
         id="stop119" />
      <stop
         stop-color="#f4eed7"
         stop-opacity="0"
         offset="1"
         id="stop121" />
    </linearGradient>
    <linearGradient
       id="aw"
       x1="646.73999"
       x2="547.53998"
       gradientUnits="userSpaceOnUse"
       xlink:href="#d" />
    <linearGradient
       id="au"
       x1="561.25"
       x2="569.88"
       y1="341.95001"
       y2="348.60999"
       gradientTransform="matrix(0.96183,7.9388e-4,7.9388e-4,0.95562,22.543,14.618)"
       gradientUnits="userSpaceOnUse"
       xlink:href="#b" />
    <linearGradient
       id="at"
       x1="501.51999"
       x2="506.62"
       y1="310.39001"
       y2="335.60001"
       gradientUnits="userSpaceOnUse"
       xlink:href="#n" />
    <linearGradient
       id="l"
       x1="439.17001"
       x2="357.76999"
       y1="298.25"
       y2="251.25999"
       gradientUnits="userSpaceOnUse"
       xlink:href="#c" />
    <linearGradient
       id="as"
       x1="379.12"
       x2="369.75"
       y1="377.48999"
       y2="370.60999"
       gradientUnits="userSpaceOnUse"
       xlink:href="#b" />
    <linearGradient
       id="k"
       x1="349.89001"
       x2="366.39001"
       y1="241.73"
       y2="251.25999"
       gradientUnits="userSpaceOnUse"
       xlink:href="#b" />
    <linearGradient
       id="ar"
       x1="347.75"
       x2="368.62"
       y1="343.35999"
       y2="348.85999"
       gradientUnits="userSpaceOnUse"
       xlink:href="#b" />
    <linearGradient
       id="aq"
       x1="397.17999"
       x2="364.42001"
       gradientUnits="userSpaceOnUse"
       xlink:href="#n" />
    <linearGradient
       id="ap"
       x1="450.98999"
       x2="379.69"
       y1="411.54001"
       y2="371.31"
       gradientUnits="userSpaceOnUse"
       xlink:href="#b" />
    <radialGradient
       id="ao"
       cx="300"
       cy="698.52002"
       r="300"
       gradientTransform="matrix(0.69124,0,0,0.31403,92.627,223.1564)"
       gradientUnits="userSpaceOnUse">
      <stop
         stop-color="#004c00"
         stop-opacity=".53365"
         offset="0"
         id="stop133" />
      <stop
         stop-color="#004c00"
         stop-opacity="0"
         offset=".90333"
         id="stop135" />
      <stop
         stop-color="#004c00"
         stop-opacity="0"
         offset="1"
         id="stop137" />
    </radialGradient>
    <radialGradient
       id="ab"
       cx="300"
       cy="698.52002"
       r="300"
       gradientTransform="matrix(0,0.46915164,-0.98038668,0,678.49685,6.31)"
       gradientUnits="userSpaceOnUse">
      <stop
         offset="0"
         id="stop140" />
      <stop
         stop-opacity="0"
         offset=".98384"
         id="stop142" />
      <stop
         stop-opacity="0"
         offset="1"
         id="stop144" />
    </radialGradient>
    <radialGradient
       id="aa"
       cx="300"
       cy="698.52002"
       r="300"
       gradientTransform="matrix(0.94832,0,0,-0.024967,15.503,459.9464)"
       gradientUnits="userSpaceOnUse">
      <stop
         offset="0"
         id="stop147" />
      <stop
         stop-opacity="0"
         offset=".90333"
         id="stop149" />
      <stop
         stop-opacity="0"
         offset="1"
         id="stop151" />
    </radialGradient>
    <radialGradient
       id="an"
       cx="641.94"
       cy="487.53"
       r="34.294998"
       gradientTransform="matrix(1.3499,0,0,3.587,-222.82,-1258)"
       gradientUnits="userSpaceOnUse"
       xlink:href="#d" />
    <radialGradient
       id="am"
       cx="454.23999"
       cy="793.94"
       r="125.67"
       gradientTransform="matrix(0.71267,0,0,0.44728,137.63,415.35)"
       gradientUnits="userSpaceOnUse"
       xlink:href="#a" />
    <radialGradient
       id="al"
       cx="455.60999"
       cy="791.41998"
       r="127.09"
       gradientTransform="matrix(1.0866,0,0,0.48794,-38.319,385.29)"
       gradientUnits="userSpaceOnUse"
       xlink:href="#f" />
    <radialGradient
       id="ak"
       cx="609.42999"
       cy="639.90002"
       r="30.792999"
       gradientTransform="matrix(0,-3.1934,1.983,-1.7842e-6,-717.62,2473.1)"
       gradientUnits="userSpaceOnUse"
       xlink:href="#a" />
    <radialGradient
       id="aj"
       cx="842.31"
       cy="513.96002"
       r="91.748001"
       gradientTransform="matrix(1.0132,0,0,2.6877,-14.943,-830.9)"
       gradientUnits="userSpaceOnUse"
       xlink:href="#f" />
    <radialGradient
       id="ai"
       cx="1018.1"
       cy="336.19"
       r="87.153999"
       gradientTransform="matrix(2.3257e-8,-0.96091,0.91697,-1.6814e-8,535.85,1433.6)"
       gradientUnits="userSpaceOnUse"
       xlink:href="#a" />
    <radialGradient
       id="ah"
       cx="760.75"
       cy="530.14001"
       r="10.067"
       gradientTransform="matrix(1.703,0,0,1.8344,-814.06,-441.02)"
       gradientUnits="userSpaceOnUse"
       xlink:href="#c" />
    <radialGradient
       id="ag"
       cx="709.25"
       cy="521.31"
       r="33.300999"
       gradientTransform="matrix(0.9682,-0.80333,1.3626,1.6423,-968.3,254.71)"
       gradientUnits="userSpaceOnUse"
       xlink:href="#c" />
    <radialGradient
       id="af"
       cx="761.64001"
       cy="502.44"
       r="33.300999"
       gradientTransform="matrix(0.71701,-0.71701,1.2162,1.2162,-701.19,400.83)"
       gradientUnits="userSpaceOnUse"
       xlink:href="#b" />
    <radialGradient
       id="j"
       cx="700.59998"
       cy="474.25"
       r="16.709"
       gradientTransform="matrix(1.555,-0.92247,1.323,2.2915,-1012.2,29.319)"
       gradientUnits="userSpaceOnUse"
       xlink:href="#a" />
    <radialGradient
       id="i"
       cx="684.60999"
       cy="472.17001"
       r="16.709"
       gradientTransform="matrix(1.674,-0.99943,1.5172,2.6279,-1185.6,-76.935)"
       gradientUnits="userSpaceOnUse"
       xlink:href="#f" />
    <radialGradient
       id="ae"
       cx="340.32999"
       cy="410.14001"
       r="87.650002"
       gradientTransform="matrix(0,-1.5261,1.5121,-3.5023e-6,-207.67,866.24)"
       gradientUnits="userSpaceOnUse"
       xlink:href="#a" />
    <radialGradient
       id="h"
       cx="191.39999"
       cy="303.82001"
       r="12.969"
       gradientTransform="matrix(2.1212,0.22345,-0.48816,4.634,95.114,-1139.7)"
       gradientUnits="userSpaceOnUse"
       xlink:href="#d" />
    <radialGradient
       id="g"
       cx="193.92999"
       cy="300.44"
       r="12.969"
       gradientTransform="matrix(1.0677,0.28608,-0.51206,1.911,306.78,-346.83)"
       gradientUnits="userSpaceOnUse"
       xlink:href="#c" />
    <radialGradient
       id="ad"
       cx="670.54999"
       cy="642.35999"
       r="56.375999"
       gradientTransform="matrix(1.2874,0,0,2.2976,-530.69,-1057.8136)"
       gradientUnits="userSpaceOnUse"
       xlink:href="#d" />
    <radialGradient
       id="ac"
       cx="640.63"
       cy="623.33002"
       r="56.375999"
       gradientTransform="matrix(1.5433,0,0,2.8128,-695.36,-1372.8136)"
       gradientUnits="userSpaceOnUse"
       xlink:href="#a" />
    <radialGradient
       inkscape:collect="always"
       xlink:href="#a"
       id="radialGradient4878"
       gradientUnits="userSpaceOnUse"
       gradientTransform="matrix(1.555,-0.92247,1.323,2.2915,-1012.2,29.319)"
       cx="700.59998"
       cy="474.25"
       r="16.709" />
    <radialGradient
       inkscape:collect="always"
       xlink:href="#f"
       id="radialGradient4880"
       gradientUnits="userSpaceOnUse"
       gradientTransform="matrix(1.674,-0.99943,1.5172,2.6279,-1185.6,-76.935)"
       cx="684.60999"
       cy="472.17001"
       r="16.709" />
    <linearGradient
       inkscape:collect="always"
       xlink:href="#m"
       id="linearGradient4882"
       gradientUnits="userSpaceOnUse"
       x1="500.67001"
       y1="347.06"
       x2="494.17001"
       y2="363.32001" />
    <radialGradient
       inkscape:collect="always"
       xlink:href="#d"
       id="radialGradient4884"
       gradientUnits="userSpaceOnUse"
       gradientTransform="matrix(2.1212,0.22345,-0.48816,4.634,95.114,-1139.7)"
       cx="191.39999"
       cy="303.82001"
       r="12.969" />
    <linearGradient
       inkscape:collect="always"
       xlink:href="#c"
       id="linearGradient4886"
       gradientUnits="userSpaceOnUse"
       x1="439.17001"
       y1="298.25"
       x2="357.76999"
       y2="251.25999" />
    <linearGradient
       inkscape:collect="always"
       xlink:href="#m"
       id="linearGradient4888"
       gradientUnits="userSpaceOnUse"
       x1="500.67001"
       y1="347.06"
       x2="494.17001"
       y2="363.32001" />
    <linearGradient
       inkscape:collect="always"
       xlink:href="#b"
       id="linearGradient4890"
       gradientUnits="userSpaceOnUse"
       x1="349.89001"
       y1="241.73"
       x2="366.39001"
       y2="251.25999" />
    <radialGradient
       inkscape:collect="always"
       xlink:href="#c"
       id="radialGradient4892"
       gradientUnits="userSpaceOnUse"
       gradientTransform="matrix(1.0677,0.28608,-0.51206,1.911,306.78,-346.83)"
       cx="193.92999"
       cy="300.44"
       r="12.969" />
    <radialGradient
       inkscape:collect="always"
       xlink:href="#aa"
       id="radialGradient1003"
       cx="140.745"
       cy="147.05499"
       fx="140.745"
       fy="147.05499"
       r="147.05499"
       gradientTransform="matrix(1.0816021,0,0,1.1219952,-10.985091,-17.19)"
       gradientUnits="userSpaceOnUse" />
  </defs>
  <path
     style="display:inline;opacity:0.66161619;fill:url(#radialGradient1003);fill-opacity:1;stroke-width:3.06724095"
     inkscape:connector-curvature="0"
     id="path372"
     d="M 300.3,-17.19 V 312.8 H -17.81 V -17.19 Z"
     sodipodi:insensitive="true" />
  <g
     id="g5054"
     transform="translate(-190.003,-7.3964)"
     style="display:inline"
     inkscape:groupmode="layer">
    <g
       transform="matrix(0.97406,0,0,0.97406,-320.59,-221.9136)"
       id="g270"
       style="display:inline;fill-rule:evenodd">
      <path
         d="m 687.97,438.31 c -2.9062,0.0107 -6.2775,0.96909 -9,2.4375 -1.3613,0.73421 -2.571,1.6076 -3.4688,2.5938 -0.8978,0.9862 -1.5036,2.116 -1.5312,3.3438 -0.24876,11.059 0.25876,25.202 -0.0312,38.094 -0.1923,8.5495 6.2839,13.923 9.2188,17.312 2.3793,2.748 7.7686,8.9523 13.5,12.406 2.8657,1.727 5.8723,2.7925 8.6875,2.25 2.8152,-0.5425 5.248,-2.7782 6.8438,-7.125 2.7516,-7.4952 3.4646,-19.618 0.75,-32.562 -2.7146,-12.944 -8.8769,-26.694 -20.062,-37.219 -1.1938,-1.1232 -2.9695,-1.5384 -4.9062,-1.5312 z m -0.65625,0.78125 c 1.6078,-0.006 2.99,0.39622 3.875,1.2812 19.887,19.887 22.638,52.019 18.219,65.938 -5.0935,16.041 -20.27,-2.193 -24.562,-7.4375 -2.7355,-3.3421 -8.3125,-8.2953 -8.3125,-16.094 0,-12.36 -0.71876,-25.866 -0.71875,-36.406 0,-3.7549 6.6767,-7.262 11.5,-7.2812 z"
         id="path248"
         inkscape:connector-curvature="0" />
      <path
         d="m 687.31,439.09 c -4.8233,0.0192 -11.5,3.5264 -11.5,7.2812 -10e-6,10.541 0.71875,24.046 0.71875,36.406 0,7.7985 5.577,12.752 8.3125,16.094 3.8136,4.6592 16.206,19.542 22.5,11.562 -6.886,0.59505 -15.956,-9.2534 -19.188,-12.812 -1.7803,-1.9608 -4.6807,-4.4736 -6.6562,-7.9375 1.7597,1.958 3.6741,3.5258 5,4.8438 3.8457,3.8225 15.333,15.018 22.938,11.719 4.3914,-13.952 1.607,-46.018 -18.25,-65.875 -0.88504,-0.88503 -2.2672,-1.2876 -3.875,-1.2812 z"
         id="path250"
         inkscape:connector-curvature="0"
         style="fill:#71c837" />
      <path
         d="m 681.5,489.69 c 1.9756,3.4638 4.8759,5.9768 6.6562,7.9375 3.7044,4.0797 15.088,16.417 22.05,11.825 l 0.31663,-3.7743 c -7.5498,5.0156 -19.988,-7.1336 -24.023,-11.144 -1.3259,-1.3179 -3.2403,-2.8857 -5,-4.8438 z"
         id="path252"
         inkscape:connector-curvature="0" />
      <path
         transform="translate(0,1.0607)"
         d="m 687.31,440.09 c -2.1742,0.009 -4.9423,0.83536 -7.0625,2.0938 -2.1202,1.25844 -3.4375,2.8951 -3.4375,4.1875 -10e-6,10.496 0.71875,24.008 0.71875,36.406 0,7.3279 5.2133,11.988 8.0625,15.469 1.9012,2.3227 5.9333,7.1431 10.156,10.344 2.1115,1.6003 4.2848,2.7915 6.125,3.0938 1.0896,0.17895 2.0156,-0.0199 2.9062,-0.46875 -3.1038,-0.62239 -6.2198,-2.6204 -9.0312,-4.875 -3.6105,-2.8954 -6.6923,-6.2781 -8.3125,-8.0625 -1.7038,-1.8765 -4.7015,-4.4472 -6.7812,-8.0938 -0.21292,-0.42854 -0.0878,-0.94808 0.29684,-1.2327 0.38465,-0.28462 0.91808,-0.25241 1.2657,0.0765 1.6969,1.8882 3.5835,3.4356 4.9688,4.8125 1.9161,1.9045 5.7093,5.6126 9.9062,8.4062 4.0334,2.6848 8.3074,4.3154 11.531,3.1875 1.9894,-6.7664 2.3518,-17.895 -0.1875,-29.719 -2.5983,-12.098 -8.1805,-24.899 -17.938,-34.656 -0.62755,-0.62754 -1.7468,-0.97449 -3.1875,-0.96875 z"
         id="path254"
         inkscape:connector-curvature="0"
         style="fill:url(#radialGradient4878);filter:url(#r)" />
      <path
         transform="translate(0,1.0607)"
         d="m 687.31,440.09 c -2.1742,0.009 -4.9423,0.83536 -7.0625,2.0938 -2.1202,1.25844 -3.4375,2.8951 -3.4375,4.1875 -10e-6,10.496 0.71875,24.008 0.71875,36.406 0,7.3279 5.2133,11.988 8.0625,15.469 1.9012,2.3227 5.9333,7.1431 10.156,10.344 2.1115,1.6003 4.2848,2.7915 6.125,3.0938 1.0896,0.17895 2.0156,-0.0199 2.9062,-0.46875 -3.1038,-0.62239 -6.2198,-2.6204 -9.0312,-4.875 -3.6105,-2.8954 -6.6923,-6.2781 -8.3125,-8.0625 -1.7038,-1.8765 -4.7015,-4.4472 -6.7812,-8.0938 -0.21292,-0.42854 -0.0878,-0.94808 0.29684,-1.2327 0.38465,-0.28462 0.91808,-0.25241 1.2657,0.0765 1.6969,1.8882 3.5835,3.4356 4.9688,4.8125 1.9161,1.9045 5.7093,5.6126 9.9062,8.4062 4.0334,2.6848 8.3074,4.3154 11.531,3.1875 1.9894,-6.7664 2.3518,-17.895 -0.1875,-29.719 -2.5983,-12.098 -8.1805,-24.899 -17.938,-34.656 -0.62755,-0.62754 -1.7468,-0.97449 -3.1875,-0.96875 z"
         id="path256"
         inkscape:connector-curvature="0"
         style="fill:url(#radialGradient4880);filter:url(#q)" />
      <g
         transform="matrix(-1.6317,0,0,1.27,1777.1,-130.7)"
         id="g268">
        <path
           d="m 687.97,438.31 c -2.9062,0.0107 -6.2775,0.96909 -9,2.4375 -1.3613,0.73421 -2.571,1.6076 -3.4688,2.5938 -0.8978,0.9862 -1.5036,2.116 -1.5312,3.3438 -0.24876,11.059 0.25876,25.202 -0.0312,38.094 -0.1923,8.5495 6.2839,13.923 9.2188,17.312 2.3793,2.748 7.7686,8.9523 13.5,12.406 2.8657,1.727 5.8723,2.7925 8.6875,2.25 2.8152,-0.5425 5.248,-2.7782 6.8438,-7.125 2.7516,-7.4952 3.4646,-19.618 0.75,-32.562 -2.7146,-12.944 -8.8769,-26.694 -20.062,-37.219 -1.1938,-1.1232 -2.9695,-1.5384 -4.9062,-1.5312 z m -0.65625,0.78125 c 1.6078,-0.006 2.99,0.39622 3.875,1.2812 19.887,19.887 22.638,52.019 18.219,65.938 -5.0935,16.041 -20.27,-2.193 -24.562,-7.4375 -2.7355,-3.3421 -8.3125,-8.2953 -8.3125,-16.094 0,-12.36 -0.71876,-25.866 -0.71875,-36.406 0,-3.7549 6.6767,-7.262 11.5,-7.2812 z"
           id="path258"
           inkscape:connector-curvature="0" />
        <path
           d="m 687.31,439.09 c -4.8233,0.0192 -11.5,3.5264 -11.5,7.2812 -10e-6,10.541 0.71875,24.046 0.71875,36.406 0,7.7985 5.577,12.752 8.3125,16.094 3.8136,4.6592 16.206,19.542 22.5,11.562 -6.886,0.59505 -15.956,-9.2534 -19.188,-12.812 -1.7803,-1.9608 -4.6807,-4.4736 -6.6562,-7.9375 1.7597,1.958 3.6741,3.5258 5,4.8438 3.8457,3.8225 15.333,15.018 22.938,11.719 4.3914,-13.952 1.607,-46.018 -18.25,-65.875 -0.88504,-0.88503 -2.2672,-1.2876 -3.875,-1.2812 z"
           id="path260"
           inkscape:connector-curvature="0"
           style="fill:#71c837" />
        <path
           d="m 681.5,489.69 c 1.9756,3.4638 4.8759,5.9768 6.6562,7.9375 3.7044,4.0797 15.088,16.417 22.05,11.825 l 0.31663,-3.7743 c -7.5498,5.0156 -19.988,-7.1336 -24.023,-11.144 -1.3259,-1.3179 -3.2403,-2.8857 -5,-4.8438 z"
           id="path262"
           inkscape:connector-curvature="0" />
        <path
           transform="translate(0,1.0607)"
           d="m 687.31,440.09 c -2.1742,0.009 -4.9423,0.83536 -7.0625,2.0938 -2.1202,1.25844 -3.4375,2.8951 -3.4375,4.1875 -10e-6,10.496 0.71875,24.008 0.71875,36.406 0,7.3279 5.2133,11.988 8.0625,15.469 1.9012,2.3227 5.9333,7.1431 10.156,10.344 2.1115,1.6003 4.2848,2.7915 6.125,3.0938 1.0896,0.17895 2.0156,-0.0199 2.9062,-0.46875 -3.1038,-0.62239 -6.2198,-2.6204 -9.0312,-4.875 -3.6105,-2.8954 -6.6923,-6.2781 -8.3125,-8.0625 -1.7038,-1.8765 -4.7015,-4.4472 -6.7812,-8.0938 -0.21292,-0.42854 -0.0878,-0.94808 0.29684,-1.2327 0.38465,-0.28462 0.91808,-0.25241 1.2657,0.0765 1.6969,1.8882 3.5835,3.4356 4.9688,4.8125 1.9161,1.9045 5.7093,5.6126 9.9062,8.4062 4.0334,2.6848 8.3074,4.3154 11.531,3.1875 1.9894,-6.7664 2.3518,-17.895 -0.1875,-29.719 -2.5983,-12.098 -8.1805,-24.899 -17.938,-34.656 -0.62755,-0.62754 -1.7468,-0.97449 -3.1875,-0.96875 z"
           id="path264"
           inkscape:connector-curvature="0"
           style="fill:url(#j);filter:url(#r)" />
        <path
           transform="translate(0,1.0607)"
           d="m 687.31,440.09 c -2.1742,0.009 -4.9423,0.83536 -7.0625,2.0938 -2.1202,1.25844 -3.4375,2.8951 -3.4375,4.1875 -10e-6,10.496 0.71875,24.008 0.71875,36.406 0,7.3279 5.2133,11.988 8.0625,15.469 1.9012,2.3227 5.9333,7.1431 10.156,10.344 2.1115,1.6003 4.2848,2.7915 6.125,3.0938 1.0896,0.17895 2.0156,-0.0199 2.9062,-0.46875 -3.1038,-0.62239 -6.2198,-2.6204 -9.0312,-4.875 -3.6105,-2.8954 -6.6923,-6.2781 -8.3125,-8.0625 -1.7038,-1.8765 -4.7015,-4.4472 -6.7812,-8.0938 -0.21292,-0.42854 -0.0878,-0.94808 0.29684,-1.2327 0.38465,-0.28462 0.91808,-0.25241 1.2657,0.0765 1.6969,1.8882 3.5835,3.4356 4.9688,4.8125 1.9161,1.9045 5.7093,5.6126 9.9062,8.4062 4.0334,2.6848 8.3074,4.3154 11.531,3.1875 1.9894,-6.7664 2.3518,-17.895 -0.1875,-29.719 -2.5983,-12.098 -8.1805,-24.899 -17.938,-34.656 -0.62755,-0.62754 -1.7468,-0.97449 -3.1875,-0.96875 z"
           id="path266"
           inkscape:connector-curvature="0"
           style="fill:url(#i);filter:url(#q)" />
      </g>
    </g>
    <g
       style="display:inline"
       transform="matrix(0.97406,0,0,0.97406,-28.372,-221.9136)"
       id="g362">
      <path
         d="m 368.94,294 c -46.351,0 -83.969,33.415 -83.969,74.594 0,32.001 22.714,59.29 54.594,69.875 -2.5347,-4.6864 -4.3985,-9.8503 -5.375,-15.281 -0.0951,-0.52902 -0.17328,-1.0382 -0.25,-1.5625 9.3791,23.552 29.402,38.674 45.781,34.094 3.8356,-1.0726 7.1456,-3.1615 9.875,-6 -24.521,3.0262 -48.288,-12.769 -54.062,-52.656 l 1.5938,-1.0625 c 7.4719,42.04 38.707,56.518 64.281,43.938 40.971,-20.154 63.205,-73.804 9.3438,-136.03 -12.316,-6.3053 -26.582,-9.9062 -41.812,-9.9062 z m 44.469,11.344 c 1.5803,1.572 3.1296,3.151 4.5938,4.7188 0.68656,-0.22708 1.3659,-0.43593 2.0625,-0.625 -2.136,-1.4598 -4.3656,-2.8187 -6.6562,-4.0938 z m 14.062,7.6562 c -2.0568,0.008 -4.131,0.24142 -6.1562,0.71875 36.8,41.844 33.098,81.641 12.312,108.44 23.013,-14.226 35.344,-41.002 19.531,-76.531 -0.18149,0.53422 -0.38768,1.0659 -0.59375,1.5938 1.7032,-19.282 -8.991,-34.283 -25.094,-34.219 z m -1.5625,117.78 c -0.45297,0.44289 -0.91168,0.87994 -1.375,1.3125 0.46171,-0.42951 0.92308,-0.87314 1.375,-1.3125 z"
         id="path272"
         inkscape:connector-curvature="0"
         style="fill:#71c837;fill-rule:evenodd" />
      <path
         transform="matrix(1,0,0,0.98879,0,7.2135)"
         d="m 368.94,296.44 c -45.173,0 -81.531,32.469 -81.531,72.156 0,28.948 19.423,53.831 47.438,65.312 -1.3191,-3.2968 -2.419,-6.7026 -3.0625,-10.281 -0.10227,-0.56859 -0.20292,-1.1209 -0.28125,-1.6562 -0.21592,-1.2512 0.55975,-2.4601 1.7871,-2.7852 1.22735,-0.3251 2.4998,0.34121 2.9316,1.5352 4.5345,11.387 11.637,20.697 19.438,26.531 7.801,5.834 16.14,8.1258 23.406,6.0938 0.79758,-0.22304 1.4736,-0.65018 2.2188,-0.96875 -9.8804,-0.52513 -19.416,-4.0627 -27.375,-11.062 -10.256,-9.0207 -17.863,-23.536 -20.812,-43.906 -0.12359,-0.9363 0.30193,-1.8603 1.0938,-2.375 l 1.5938,-1.0625 c 0.68457,-0.44839 1.5478,-0.52542 2.3009,-0.20534 0.7531,0.32008 1.2968,0.99504 1.4491,1.7991 3.6415,20.488 12.977,33.937 24.219,40.812 11.242,6.875 24.464,7.3266 36.562,1.375 19.871,-9.7746 35.099,-27.6 38.906,-50.469 3.7889,-22.759 -3.6829,-50.79 -29.969,-81.344 -11.887,-6.0149 -25.616,-9.5 -40.312,-9.5 z m 58.531,19 c -0.4822,0.002 -0.95481,0.12696 -1.4375,0.15625 29.081,35.111 30.638,69.265 17.594,95.219 5.4001,-5.5743 9.6292,-12.071 11.969,-19.656 3.5667,-11.565 3.0325,-25.481 -3.4688,-41.531 -1.2443,-0.22757 -2.1108,-1.3649 -2,-2.625 0.80713,-9.138 -1.3397,-17.126 -5.4062,-22.719 -4.0665,-5.593 -9.9616,-8.873 -17.25,-8.8438 z"
         id="path274"
         inkscape:connector-curvature="0"
         style="fill:url(#ae);fill-rule:evenodd;filter:url(#bc)" />
      <path
         d="m 335.53,397.05 1.591,-1.0607 c 7.4719,42.04 38.703,56.522 64.278,43.941 42.484,-20.899 64.834,-77.788 3.0741,-142.94 64.828,57.05 49.994,113 13.263,140.81 -31.248,23.658 -74.168,14.764 -82.206,-40.755 z"
         id="path276"
         inkscape:connector-curvature="0"
         style="fill-rule:evenodd" />
      <path
         d="m 454.34,341.03 c -0.30458,1.552 -0.67576,3.0843 -1.1875,4.5938 15.821,35.548 3.474,62.342 -19.562,76.562 -3.2816,4.2258 -6.9592,8.1517 -11,11.688 2.2235,-0.76285 4.4213,-1.6634 6.5938,-2.6875 31.353,-14.78 50.769,-47.592 25.156,-90.156 z"
         id="path278"
         inkscape:connector-curvature="0"
         style="fill-rule:evenodd" />
      <path
         d="m 428.25,308.25 c -0.47958,0.008 -0.95113,0.0324 -1.4375,0.0625 -1.61,0.0995 -3.2652,0.33317 -4.9375,0.6875 -1.3179,0.27923 -2.602,0.64146 -3.875,1.0625 1.1379,1.2185 2.2122,2.441 3.2812,3.6562 0.005,0.005 0.0267,-0.005 0.0312,0 2.0252,-0.47733 4.0995,-0.71049 6.1562,-0.71875 16.103,-0.0647 26.797,14.937 25.094,34.219 1.677,-4.2957 2.5516,-8.813 2.4375,-13.375 -0.38357,-15.344 -11.883,-25.829 -26.75,-25.594 z"
         id="path280"
         inkscape:connector-curvature="0" />
      <g
         transform="matrix(-0.99217,-0.12487,-0.12487,0.99217,1051.1,70.176)"
         clip-path="url(#bh)"
         id="g300">
        <path
           d="m 550.65,365.27 c -0.66093,1.9891 -1.43,4.0035 -1.7812,6.1562 -0.75345,4.618 -1.7039,19.473 21.922,28.599 l 13.547,3.6201 c 3.6153,-5.6614 6.5965,-12.704 8.4688,-20.594 0.16267,-0.68551 0.45331,-1.366 0.46875,-2.0625 0.38218,-17.238 -26.82,-41.71 -29.306,-37.572 -3.9059,3.0326 0.16304,-11.227 -13.319,21.853 z"
           id="path282"
           inkscape:connector-curvature="0"
           style="fill:#fff6d5" />
        <path
           transform="translate(66.269,5.3371)"
           d="m 503.57,359.73 a 7.5446,11.205 0 1 1 -15.089,0 7.5446,11.205 0 1 1 15.089,0 z"
           id="path284"
           inkscape:connector-curvature="0"
           style="fill:#786721" />
        <path
           transform="matrix(0.51631,0,0,0.51631,306.33,179.23)"
           d="m 503.57,359.73 a 7.5446,11.205 0 1 1 -15.089,0 7.5446,11.205 0 1 1 15.089,0 z"
           id="path286"
           inkscape:connector-curvature="0" />
        <path
           transform="matrix(0.62175,0,0,0.51631,254.95,177.32)"
           d="m 503.57,359.73 a 7.5446,11.205 0 1 1 -15.089,0 7.5446,11.205 0 1 1 15.089,0 z"
           id="path288"
           inkscape:connector-curvature="0"
           style="fill:url(#linearGradient4882);filter:url(#y)" />
        <path
           transform="matrix(0.92727,0,0,0.92727,125.84,29.412)"
           d="m 470.3,345.45 c -6.0371,0 -10.938,7.2836 -10.938,16.25 0,8.9664 4.9004,16.25 10.938,16.25 6.0376,0 10.938,-7.2836 10.938,-16.25 0,-8.9664 -4.9004,-16.25 -10.938,-16.25 z m 0,5.0312 c 4.1646,-10e-6 7.5312,5.0334 7.5312,11.219 0,6.1856 -3.3666,11.188 -7.5312,11.188 -4.1646,0 -7.5312,-5.0021 -7.5312,-11.188 0,-6.1859 3.3666,-11.219 7.5312,-11.219 z"
           clip-path="url(#z)"
           id="path290"
           inkscape:connector-curvature="0"
           style="fill:#28220b;filter:url(#x)" />
        <path
           d="m 578.65,336.68 c 0.57924,0.0673 1.1513,0.19447 1.7207,0.34254 11.631,3.025 17.234,22.039 13.053,43.187 -15.365,-16.645 -27.505,-22.817 -38.348,-25.394 5.8732,-11.002 14.031,-18.052 21.818,-18.199 0.58244,-0.011 1.1766,-0.004 1.7558,0.0635 z"
           id="path292"
           inkscape:connector-curvature="0"
           style="fill:#aad400" />
        <path
           d="m 577.06,332.33 c -12.032,0.22338 -27.151,15.202 -29.875,36.844 -2.4286,19.296 11.733,26.905 25.925,32.689 -7.2456,-5.6264 -14.289,-10.851 -18.746,-16.838 -4.6842,-6.2923 -6.5106,-13.426 -2.71,-22.751 7.1183,-17.466 18.296,-27.967 28.718,-25.256 12.146,3.1591 17.718,23.779 12.438,46.031 -1.8736,7.8954 -4.879,14.931 -8.5,20.594 h 0.0312 c 0.12186,0.0327 0.23144,0.0798 0.34375,0.125 4.107,-6.0996 7.4983,-13.829 9.5625,-22.562 5.5364,-23.424 -0.5056,-45.143 -13.5,-48.469 -1.2182,-0.31175 -2.4428,-0.42936 -3.6875,-0.40625 z"
           id="path294"
           inkscape:connector-curvature="0" />
        <path
           d="m 599.48,387.13 c -19.096,-20.964 -35.699,-32.227 -63.872,-32.165 l 3.496,-2.216 c 16.459,1.1593 33.732,2.4515 60.376,34.381 z"
           id="path296"
           inkscape:connector-curvature="0"
           style="fill-rule:evenodd" />
        <path
           transform="matrix(1.0207,0.0014208,0.0014208,1.0096,-12.807,-4.459)"
           d="m 579.23,337.77 c 0.53022,0.0616 1.054,0.17773 1.5752,0.3128 10.648,2.7597 15.791,20.055 11.98,39.284 -14.077,-15.148 -25.192,-20.77 -35.119,-23.122 5.3675,-10 12.829,-16.406 19.957,-16.534 0.5331,-0.01 1.0769,-0.003 1.6071,0.0591 z"
           id="path298"
           inkscape:connector-curvature="0"
           style="fill:url(#au);filter:url(#bf)" />
      </g>
      <path
         d="m 368.94,289.03 c -49.669,0 -89.969,35.264 -89.969,78.688 0,35.291 26.617,65.17 63.25,75.125 -0.9503,-1.4062 -1.8385,-2.8631 -2.6562,-4.375 -31.88,-10.585 -54.594,-37.874 -54.594,-69.875 -10e-6,-41.179 37.618,-74.594 83.969,-74.594 19.241,0 36.96,5.7566 51.125,15.438 0.59498,-0.16149 1.2054,-0.30887 1.8125,-0.4375 1.6723,-0.35433 3.3275,-0.58801 4.9375,-0.6875 0.33816,-0.0209 0.66848,-0.0194 1,-0.0312 -15.784,-11.97 -36.357,-19.25 -58.875,-19.25 z"
         id="path302"
         inkscape:connector-curvature="0" />
      <path
         d="m 439.71,262.44 c -4.4695,-3.0206 -10.472,-3.155 -14.328,-0.0514 -1.731,1.3935 -2.7834,3.2319 -3.1314,5.2183 -46.657,8.2742 -55.221,42.532 -57.722,57.495 l 29.283,-4.5389 c -3.5115,-22.109 12.4,-43.068 30.185,-45.627 0.44183,0.64024 0.96958,1.2521 1.5663,1.832 4.5135,4.3865 11.745,5.0764 16.151,1.5294 4.406,-3.547 4.3328,-9.9937 -0.18072,-14.38 -0.56418,-0.54832 -1.1848,-1.0465 -1.8233,-1.478 z"
         id="path304"
         inkscape:connector-curvature="0"
         style="fill:#71c837;fill-rule:evenodd" />
      <path
         d="m 364.34,245.97 c -5.3914,0.18116 -10.328,3.5985 -11.625,8.375 -0.58224,2.1446 -0.35391,4.2505 0.53125,6.0625 -32.898,34.104 -19.703,66.859 -12.938,80.438 l 21.031,-20.875 c -15.83,-15.83 -15.265,-42.138 -2.375,-54.656 0.73365,0.25858 1.5202,0.44372 2.3438,0.5625 6.2294,0.89846 12.487,-2.7911 13.969,-8.25 1.482,-5.4589 -2.3643,-10.633 -8.5938,-11.531 -0.77868,-0.11231 -1.5735,-0.15088 -2.3438,-0.125 z"
         id="path306"
         inkscape:connector-curvature="0"
         style="fill:#71c837;fill-rule:evenodd" />
      <path
         d="m 441.8,258.87 c -4.9669,-3.3916 -11.564,-3.5701 -16.239,0.0285 -1.9095,1.4698 -3.235,3.3932 -4.0019,5.5131 -28.42,1.1265 -45.081,24.545 -51.12,38.966 l 0.71462,0.0489 c 6.9528,-14.437 20.859,-30.013 49.66,-35.54 -0.16269,2.4543 0.37773,5.0089 1.6149,7.3507 -11.946,2.4516 -22.798,13.079 -27.126,26.57 5.5411,-11.662 16.655,-20.985 28.523,-24.398 0.0931,0.11966 0.18319,0.24038 0.28063,0.35816 4.9458,5.9787 13.599,7.2398 19.352,2.8108 5.753,-4.429 6.4268,-12.872 1.481,-18.85 -0.92733,-1.121 -1.9925,-2.0749 -3.1387,-2.8576 z m -2.0944,3.5769 c 0.63851,0.43151 1.2591,0.92965 1.8233,1.478 4.5135,4.3865 4.5869,10.833 0.18072,14.38 -4.3612,3.5109 -11.496,2.8732 -16.017,-1.3939 -0.0466,-0.044 -0.0873,-0.0907 -0.13338,-0.13544 -0.27612,-0.26834 -0.53701,-0.55621 -0.78192,-0.83789 -0.24739,-0.28904 -0.48888,-0.59391 -0.70157,-0.89541 -0.0251,-0.0356 -0.0582,-0.0629 -0.0828,-0.0987 -1.6439,-2.3867 -2.1931,-5.1123 -1.6749,-7.5873 0.0658,-0.31402 0.15355,-0.63065 0.25418,-0.93534 0.10063,-0.30469 0.21286,-0.61261 0.34842,-0.90555 0.13556,-0.29294 0.29743,-0.57865 0.46792,-0.8574 0.51145,-0.83625 1.1638,-1.5975 1.9899,-2.2626 3.8554,-3.1037 9.858,-2.9692 14.328,0.0514 z"
         id="path308"
         inkscape:connector-curvature="0" />
      <path
         d="m 363.94,241.84 c -6.012,0.17301 -11.456,3.904 -13.125,9.5625 -0.68187,2.3112 -0.62465,4.6464 0,6.8125 -27.132,21.385 -20.905,59.194 -15.906,69.25 -4.9929,-16.311 -6.3597,-40.725 17.344,-66 1.3101,2.0818 3.2481,3.8317 5.625,5 -8.2275,9.0017 -10.767,23.977 -6.3438,37.438 -2.3664,-12.693 1.1508,-26.767 8.75,-36.5 0.14563,0.0421 0.28946,0.0869 0.4375,0.125 7.5146,1.933 15.258,-2.1294 17.312,-9.0938 2.054,-6.9644 -2.3604,-14.192 -9.875,-16.125 -1.409,-0.36243 -2.8314,-0.50867 -4.2188,-0.46875 z m 0.40625,4.125 c 0.77021,-0.0259 1.5651,0.0127 2.3438,0.125 6.2294,0.89847 10.076,6.0724 8.5938,11.531 -1.4669,5.4032 -7.6153,9.0782 -13.781,8.2812 l -0.1875,-0.0312 c -0.38109,-0.055 -0.76133,-0.13467 -1.125,-0.21875 -0.37,-0.0886 -0.74452,-0.19344 -1.0938,-0.3125 l -0.125,-0.0312 c -2.7324,-0.96579 -4.778,-2.8488 -5.8125,-5.1562 -0.13125,-0.29275 -0.24621,-0.60056 -0.34375,-0.90625 -0.0975,-0.30569 -0.18762,-0.62081 -0.25,-0.9375 -0.0624,-0.31669 -0.0992,-0.64302 -0.125,-0.96875 -0.0773,-0.9772 0.003,-1.9765 0.28125,-3 1.2968,-4.7765 6.2336,-8.1938 11.625,-8.375 z"
         id="path310"
         inkscape:connector-curvature="0" />
      <path
         transform="matrix(0.80927,0.58744,-0.58744,0.80927,289.35,-150.64)"
         d="m 353.8125,261.90625 c -0.47999,0.48878 -0.94644,0.98068 -1.40625,1.46875 -0.2283,0.24244 -0.46412,0.47647 -0.6875,0.71875 -0.76084,0.82461 -1.51377,1.61557 -2.21875,2.4375 -0.6216,0.72472 -1.20185,1.46526 -1.78125,2.1875 -0.60576,0.75509 -1.18908,1.52927 -1.75,2.28125 -0.52536,0.70499 -1.04412,1.39187 -1.53125,2.09375 -0.0256,0.0369 -0.037,0.0881 -0.0625,0.125 -0.36354,0.52588 -0.71988,1.03853 -1.0625,1.5625 l -0.5625,0.875 c -0.23589,0.37236 -0.46188,0.75371 -0.6875,1.125 -0.34674,0.57062 -0.67704,1.15082 -1,1.71875 -0.11949,0.21011 -0.28995,0.41528 -0.40625,0.625 -0.14189,0.25608 -0.26908,0.52581 -0.40625,0.78125 -0.39103,0.72846 -0.77146,1.46418 -1.125,2.1875 -0.004,0.008 0.004,0.0232 0,0.0312 -0.18927,0.38767 -0.35245,0.7389 -0.53125,1.125 -0.21936,0.47337 -0.42107,0.9666 -0.625,1.4375 -0.11767,0.27201 -0.26236,0.54134 -0.375,0.8125 -0.23414,0.56313 -0.44346,1.12822 -0.65625,1.6875 -0.17629,0.46333 -0.33795,0.91444 -0.5,1.375 -0.25466,0.72389 -0.49814,1.4708 -0.71875,2.1875 -0.15591,0.50697 -0.29802,0.99681 -0.4375,1.5 -0.0784,0.28273 -0.14545,0.56227 -0.21875,0.84375 -0.0791,0.30373 -0.17665,0.60398 -0.25,0.90625 -0.14792,0.6095 -0.31249,1.20919 -0.4375,1.8125 -0.0816,0.3937 -0.14659,0.76529 -0.21875,1.15625 -0.30368,1.64558 -0.50813,3.31293 -0.65625,4.90625 -0.0342,0.36987 -0.0673,0.72692 -0.0937,1.09375 -0.0365,0.50667 -0.0715,0.99926 -0.0937,1.5 -0.0351,0.79075 -0.061,1.59966 -0.0625,2.375 -9e-5,0.0503 -5e-5,0.10602 0,0.15625 1.4e-4,0.19228 -0.002,0.37121 0,0.5625 0.006,0.51402 0.043,1.02454 0.0625,1.53125 0.007,0.16936 -0.008,0.33148 0,0.5 0.0155,0.32428 0.0417,0.64759 0.0625,0.96875 0.0793,1.22361 0.19348,2.44882 0.34375,3.625 0.0126,0.099 0.0182,0.21384 0.0312,0.3125 0.0646,0.48545 0.14346,0.96062 0.21875,1.4375 0.18174,1.15119 0.3882,2.27634 0.625,3.375 0.2368,1.09866 0.5312,2.14478 0.8125,3.1875 0.26693,0.98947 0.51482,1.97014 0.8125,2.90625 0.016,0.0504 0.0464,0.10604 0.0625,0.15625 l 14.98942,-22.47181 c -4.12203,-13.44553 -1.3806,-28.25232 6.97933,-37.02819 -1.84194,-1.08777 -3.34766,-2.50243 -4.4375,-4.15625 z"
         id="path312"
         inkscape:connector-curvature="0"
         style="fill:url(#radialGradient4884);fill-rule:evenodd;filter:url(#v)" />
      <path
         transform="matrix(1.0803,0.064222,-0.21888,1.5689,-96.872,-221.03)"
         d="m 529.27,345.87 a 28.726,29.433 0 1 1 -57.452,0 28.726,29.433 0 1 1 57.452,0 z"
         id="path314"
         inkscape:connector-curvature="0"
         style="fill:url(#at);filter:url(#be)" />
      <path
         transform="matrix(0.80927,0.58744,-0.58744,0.80927,289.35,-150.64)"
         d="m 364.31432,246.8325 c -2.15535,0.0724 -4.24402,0.70961 -5.99658,1.77042 -0.25037,0.15155 -0.47742,0.31707 -0.71388,0.48544 -1.8917,1.34693 -3.31958,3.21462 -3.91206,5.39693 -0.0635,0.23382 -0.12981,0.45425 -0.17133,0.68532 -0.003,0.0178 0.003,0.0393 0,0.0571 -0.0367,0.21266 -0.0666,0.44638 -0.0857,0.65676 -0.002,0.019 0.002,0.0381 0,0.0571 -0.0188,0.22735 -0.0292,0.43202 -0.0286,0.65677 -10e-5,0.019 -3e-5,0.0381 0,0.0571 0.002,0.18787 0.0138,0.38502 0.0286,0.57111 0.0236,0.29764 0.0572,0.59583 0.11422,0.88521 0.057,0.28938 0.13931,0.57732 0.22844,0.85665 0.0891,0.27933 0.19418,0.5606 0.31411,0.8281 0.94531,2.10843 2.81444,3.8291 5.31126,4.71161 l 0.11422,0.0286 c 0.31912,0.1088 0.66134,0.20461 0.99943,0.28556 0.33231,0.0768 0.67976,0.14966 1.02799,0.19988 l 0.17133,0.0286 c 0.12369,0.016 0.2476,0.0165 0.37122,0.0285 0.17304,0.0169 0.34129,0.0478 0.51399,0.0571 h 0.17133 c 0.65161,0.0259 1.30454,-0.01 1.94176,-0.0857 0.69343,-0.0826 1.36747,-0.20631 2.02741,-0.39978 l 0.11422,-0.0285 c 0.29696,-0.0901 0.59781,-0.20296 0.88522,-0.31411 l 0.0857,-0.0285 c 0.28563,-0.11282 0.5537,-0.23851 0.8281,-0.37122 l 0.0857,-0.0286 c 0.27385,-0.13494 0.5387,-0.30297 0.79954,-0.45688 0.28878,-0.17047 0.5859,-0.35002 0.85666,-0.54255 l 0.0571,-0.0285 c 0.24963,-0.1799 0.48161,-0.37339 0.71388,-0.57111 l 0.0571,-0.0285 c 0.23163,-0.19943 0.44443,-0.44052 0.65677,-0.65677 0.22829,-0.23288 0.45291,-0.4627 0.65677,-0.71388 l 0.0285,-0.0285 c 0.19245,-0.23905 0.37407,-0.48809 0.54255,-0.74244 l 0.0285,-0.0285 c 0.16756,-0.25523 0.31525,-0.53013 0.45689,-0.79955 l 0.0285,-0.0285 c 0.29291,-0.56292 0.51777,-1.15327 0.68533,-1.77043 1.35425,-4.98811 -2.16043,-9.71587 -7.85268,-10.53686 -0.71153,-0.10262 -1.43784,-0.13787 -2.14164,-0.11422 z"
         id="path316"
         inkscape:connector-curvature="0"
         style="fill:url(#linearGradient4886);fill-rule:evenodd;filter:url(#e)" />
      <path
         d="m 345.84,353.19 c -0.71692,0.007 -1.4224,0.0318 -2.1562,0.0625 -0.66093,1.9891 -1.2716,4.0328 -1.7812,6.1562 15.814,3.1304 23.9,19.665 21.844,29.219 l 13.625,3 c 3.6153,-5.6614 6.5965,-12.704 8.4688,-20.594 0.16267,-0.68551 0.32655,-1.3806 0.46875,-2.0625 -0.005,-0.004 0.005,-0.027 0,-0.0312 -12.374,-10.216 -24.35,-15.915 -40.469,-15.75 z"
         id="path318"
         inkscape:connector-curvature="0"
         style="fill:#fff6d5" />
      <path
         transform="translate(-143.37,-1.2679)"
         d="m 503.57,359.73 a 7.5446,11.205 0 1 1 -15.089,0 7.5446,11.205 0 1 1 15.089,0 z"
         id="path320"
         inkscape:connector-curvature="0"
         style="fill:#786721" />
      <path
         transform="matrix(0.51631,0,0,0.51631,96.691,172.62)"
         d="m 503.57,359.73 a 7.5446,11.205 0 1 1 -15.089,0 7.5446,11.205 0 1 1 15.089,0 z"
         id="path322"
         inkscape:connector-curvature="0" />
      <path
         transform="matrix(0.62175,0,0,0.51631,45.314,170.72)"
         d="m 503.57,359.73 a 7.5446,11.205 0 1 1 -15.089,0 7.5446,11.205 0 1 1 15.089,0 z"
         id="path324"
         inkscape:connector-curvature="0"
         style="fill:url(#linearGradient4888);filter:url(#y)" />
      <path
         transform="matrix(0.92727,0,0,0.92727,-83.794,22.807)"
         d="m 470.3,345.45 c -6.0371,0 -10.938,7.2836 -10.938,16.25 0,8.9664 4.9004,16.25 10.938,16.25 6.0376,0 10.938,-7.2836 10.938,-16.25 0,-8.9664 -4.9004,-16.25 -10.938,-16.25 z m 0,5.0312 c 4.1646,-10e-6 7.5312,5.0334 7.5312,11.219 0,6.1856 -3.3666,11.188 -7.5312,11.188 -4.1646,0 -7.5312,-5.0021 -7.5312,-11.188 0,-6.1859 3.3666,-11.219 7.5312,-11.219 z"
         clip-path="url(#z)"
         id="path326"
         inkscape:connector-curvature="0"
         style="fill:#28220b;filter:url(#x)" />
      <path
         d="m 344.81,354.69 c -0.39368,1.2281 -0.75859,2.4792 -1.0938,3.75 7.5522,1.9659 13.394,6.7365 17.062,12.344 3.5852,5.4805 5.1423,11.593 4.5312,16.688 l 11.25,2.4688 c 3.2943,-5.3673 6.094,-11.876 7.8438,-19.25 0.09,-0.37943 0.16476,-0.75078 0.25,-1.125 -11.954,-9.7113 -23.363,-15.033 -38.812,-14.875 -0.34128,0.003 -0.68684,-0.0104 -1.0312,0 z"
         id="path328"
         inkscape:connector-curvature="0"
         style="fill:url(#as);filter:url(#bg)" />
      <path
         d="m 318.57,363.79 c 30.779,-16.088 48.083,11.327 45.179,24.821 -5.532,-18.291 -21.132,-29.49 -45.179,-24.821 z"
         id="path330"
         inkscape:connector-curvature="0"
         style="fill-rule:evenodd" />
      <path
         d="m 392.14,374.06 c -17.964,-16.503 -33.601,-24.295 -60.179,-19.464 l 3.3036,-2.6786 c 15.525,-1.6964 31.817,-3.4055 56.875,22.143 z"
         id="path332"
         inkscape:connector-curvature="0"
         style="fill-rule:evenodd" />
      <path
         d="m 370.09,320.31 c -12.032,0.22338 -24.858,15.616 -29.875,36.844 -0.1508,0.638 -0.30379,1.2712 -0.4375,1.9062 0.72513,0.0841 1.4296,0.2061 2.125,0.34375 5.3162,-22.149 19.389,-37.556 31.5,-34.406 12.146,3.1591 17.718,23.779 12.438,46.031 -1.8736,7.8954 -4.879,14.931 -8.5,20.594 h 0.0312 c 0.12186,0.0326 0.23144,0.0798 0.34375,0.125 4.107,-6.0996 7.4983,-13.829 9.5625,-22.562 5.5364,-23.424 -0.5056,-45.143 -13.5,-48.469 -1.2182,-0.31175 -2.4428,-0.42936 -3.6875,-0.40625 z"
         id="path334"
         inkscape:connector-curvature="0" />
      <path
         transform="matrix(0.80927,0.58744,-0.58744,0.80927,289.35,-150.64)"
         d="m 364.31432,246.8325 c -2.15535,0.0724 -4.24402,0.70961 -5.99658,1.77042 -0.25037,0.15155 -0.47742,0.31707 -0.71388,0.48544 -1.8917,1.34693 -3.31958,3.21462 -3.91206,5.39693 -0.0635,0.23382 -0.12981,0.45425 -0.17133,0.68532 -0.003,0.0178 0.003,0.0393 0,0.0571 -0.0367,0.21266 -0.0666,0.44638 -0.0857,0.65676 -0.002,0.019 0.002,0.0381 0,0.0571 -0.0188,0.22735 -0.0292,0.43202 -0.0286,0.65677 -10e-5,0.019 -3e-5,0.0381 0,0.0571 0.002,0.18787 0.0138,0.38502 0.0286,0.57111 0.0236,0.29764 0.0572,0.59583 0.11422,0.88521 0.057,0.28938 0.13931,0.57732 0.22844,0.85665 0.0891,0.27933 0.19418,0.5606 0.31411,0.8281 0.94531,2.10843 2.81444,3.8291 5.31126,4.71161 l 0.11422,0.0286 c 0.31912,0.1088 0.66134,0.20461 0.99943,0.28556 0.33231,0.0768 0.67976,0.14966 1.02799,0.19988 l 0.17133,0.0286 c 0.12369,0.016 0.2476,0.0165 0.37122,0.0285 0.17304,0.0169 0.34129,0.0478 0.51399,0.0571 h 0.17133 c 0.65161,0.0259 1.30454,-0.01 1.94176,-0.0857 0.69343,-0.0826 1.36747,-0.20631 2.02741,-0.39978 l 0.11422,-0.0285 c 0.29696,-0.0901 0.59781,-0.20296 0.88522,-0.31411 l 0.0857,-0.0285 c 0.28563,-0.11282 0.5537,-0.23851 0.8281,-0.37122 l 0.0857,-0.0286 c 0.27385,-0.13494 0.5387,-0.30297 0.79954,-0.45688 0.28878,-0.17047 0.5859,-0.35002 0.85666,-0.54255 l 0.0571,-0.0285 c 0.24963,-0.1799 0.48161,-0.37339 0.71388,-0.57111 l 0.0571,-0.0285 c 0.23163,-0.19943 0.44443,-0.44052 0.65677,-0.65677 0.22829,-0.23288 0.45291,-0.4627 0.65677,-0.71388 l 0.0285,-0.0285 c 0.19245,-0.23905 0.37407,-0.48809 0.54255,-0.74244 l 0.0285,-0.0285 c 0.16756,-0.25523 0.31525,-0.53013 0.45689,-0.79955 l 0.0285,-0.0285 c 0.29291,-0.56292 0.51777,-1.15327 0.68533,-1.77043 1.35425,-4.98811 -2.16043,-9.71587 -7.85268,-10.53686 -0.71153,-0.10262 -1.43784,-0.13787 -2.14164,-0.11422 z"
         id="path336"
         inkscape:connector-curvature="0"
         style="fill:url(#linearGradient4890);fill-rule:evenodd;filter:url(#e)" />
      <path
         d="m 369.94,324.59 c -9.61,0.18111 -19.781,10.87 -25.531,26.531 11.738,-0.49738 24.69,1.8312 41.969,17.438 4.32,-21.295 -1.2704,-40.52 -12.969,-43.562 -1.1387,-0.29617 -2.3039,-0.4282 -3.4688,-0.40625 z"
         id="path338"
         inkscape:connector-curvature="0"
         style="fill:#aad400" />
      <path
         transform="matrix(0.80927,0.58744,-0.58744,0.80927,289.35,-150.64)"
         d="m 353,259.8125 c 0.0792,0.19951 0.15565,0.40061 0.25,0.59375 -12.0815,12.52468 -17.94659,24.86734 -20.19663,36.14503 -9.57732,35.74304 31.89479,44.03923 17.94663,9.63622 -0.008,-0.0215 0.008,-0.041 0,-0.0625 -0.28847,-0.80503 -0.57224,-1.62406 -0.8125,-2.4375 -0.0487,-0.16502 -0.10958,-0.33474 -0.15625,-0.5 -0.15326,-0.54134 -0.27403,-1.08113 -0.40625,-1.625 -0.0707,-0.29129 -0.12284,-0.58315 -0.1875,-0.875 -0.0983,-0.4436 -0.19678,-0.86796 -0.28125,-1.3125 -0.11558,-0.60795 -0.2226,-1.23486 -0.3125,-1.84375 -0.14197,-0.96175 -0.26523,-1.9142 -0.34375,-2.875 -0.0104,-0.12832 -0.0219,-0.24674 -0.0312,-0.375 -0.0615,-0.8429 -0.11182,-1.69249 -0.125,-2.53125 -0.015,-0.94992 0.0474,-1.93414 0.0937,-2.875 0.0944,-1.91839 0.31191,-3.80051 0.65625,-5.65625 0.0974,-0.52497 0.19537,-1.01302 0.3125,-1.53125 0.0452,-0.20084 0.0768,-0.39402 0.125,-0.59375 0.0771,-0.31836 0.16546,-0.6533 0.25,-0.96875 0.0403,-0.15122 0.0829,-0.28699 0.125,-0.4375 0.4211,-1.5071 0.94119,-2.98028 1.53125,-4.40625 0.35189,-0.85043 0.68284,-1.6841 1.09375,-2.5 0.40295,-0.80008 0.8535,-1.58085 1.3125,-2.34375 0.005,-0.009 -0.005,-0.0225 0,-0.0312 0.93308,-1.54773 1.99687,-2.97423 3.15625,-4.34375 0.57236,-0.6761 1.15484,-1.34214 1.78125,-1.96875 -2.31875,-1.04587 -4.26192,-2.55009 -5.78125,-4.28125 z"
         id="path340"
         inkscape:connector-curvature="0"
         style="fill:url(#radialGradient4892);fill-rule:evenodd;filter:url(#u)" />
      <path
         d="m 369.68,326.09 c -8.9543,0.16412 -18.432,9.8498 -23.789,24.042 10.937,-0.45072 23.005,1.6594 39.105,15.802 4.0252,-19.297 -1.1838,-36.719 -12.084,-39.476 -1.061,-0.26839 -2.1467,-0.38803 -3.2321,-0.36814 z"
         id="path342"
         inkscape:connector-curvature="0"
         style="fill:url(#ar);filter:url(#w)" />
      <path
         d="m 369.68,326.09 c -8.9543,0.16412 -18.432,9.8498 -23.789,24.042 10.937,-0.45072 23.005,1.6594 39.105,15.802 4.0252,-19.297 -1.1838,-36.719 -12.084,-39.476 -1.061,-0.26839 -2.1467,-0.38803 -3.2321,-0.36814 z"
         id="path344"
         inkscape:connector-curvature="0"
         style="fill:url(#aq);filter:url(#w)" />
      <path
         d="m 374.28,299.56 c -1.6981,0.0187 -3.4238,0.19195 -5.1875,0.53125 -18.813,3.6192 -33.711,24.666 -33.25,46.969 0.0111,0.5384 0.0339,1.0638 0.0625,1.5938 4.6655,-25.058 21.708,-44.114 39.062,-43.094 16.983,0.99849 28.265,20.854 26.469,45.312 1.7687,-5.3618 2.6828,-11.085 2.5625,-16.906 -0.41761,-20.212 -13.304,-34.587 -29.719,-34.406 z"
         id="path346"
         inkscape:connector-curvature="0" />
      <path
         d="m 341.19,393.34 c -9.1305,0 -16.528,7.2517 -16.75,16.281 4.5324,-6.6717 12.208,-11.062 20.906,-11.062 3.3964,0 6.6357,0.69333 9.5938,1.9062 -3.0392,-4.3011 -8.0671,-7.125 -13.75,-7.125 z"
         id="path348"
         inkscape:connector-curvature="0" />
      <path
         d="m 333.94,421.62 c 0.0767,0.52435 0.15485,1.0335 0.25,1.5625 3.9404,21.914 22.315,39.436 41,39.094 1.7517,-0.0321 3.4365,-0.23033 5.0625,-0.5625 7.95,-1.6242 14.309,-6.7111 18.188,-13.906 -2.9307,0.89722 -5.8731,1.5416 -8.8125,1.9062 -0.005,0.005 -0.0262,-0.005 -0.0312,0 -2.7294,2.8385 -6.0394,4.9274 -9.875,6 -16.379,4.5803 -36.402,-10.542 -45.781,-34.094 z"
         id="path350"
         inkscape:connector-curvature="0" />
      <path
         transform="matrix(0.96003,0,0,0.98231,15.553,8.1351)"
         d="m 339.03,396.24 1.4896,-0.9779 c 6.9834,38.692 36.176,52.018 60.078,40.439 38.292,-18.55 59.072,-67.928 8.7328,-125.2 l -70.301,85.739 z"
         id="path352"
         inkscape:connector-curvature="0"
         style="fill:url(#ap);fill-rule:evenodd;filter:url(#bd)" />
      <path
         d="m 353.8125,261.90625 c -0.47999,0.48878 -0.94644,0.98068 -1.40625,1.46875 -0.2283,0.24244 -0.46412,0.47647 -0.6875,0.71875 -0.76084,0.82461 -1.51377,1.61557 -2.21875,2.4375 -0.6216,0.72472 -1.20185,1.46526 -1.78125,2.1875 -0.60576,0.75509 -1.18908,1.52927 -1.75,2.28125 -0.52536,0.70499 -1.04412,1.39187 -1.53125,2.09375 -0.0256,0.0369 -0.037,0.0881 -0.0625,0.125 -0.36354,0.52588 -0.71988,1.03853 -1.0625,1.5625 l -0.5625,0.875 c -0.23589,0.37236 -0.46188,0.75371 -0.6875,1.125 -0.34674,0.57062 -0.67704,1.15082 -1,1.71875 -0.11949,0.21011 -0.28995,0.41528 -0.40625,0.625 -0.14189,0.25608 -0.26908,0.52581 -0.40625,0.78125 -0.39103,0.72846 -0.77146,1.46418 -1.125,2.1875 -0.004,0.008 0.004,0.0232 0,0.0312 -0.18927,0.38767 -0.35245,0.7389 -0.53125,1.125 -0.21936,0.47337 -0.42107,0.9666 -0.625,1.4375 -0.11767,0.27201 -0.26236,0.54134 -0.375,0.8125 -0.23414,0.56313 -0.44346,1.12822 -0.65625,1.6875 -0.17629,0.46333 -0.33795,0.91444 -0.5,1.375 -0.25466,0.72389 -0.49814,1.4708 -0.71875,2.1875 -0.15591,0.50697 -0.29802,0.99681 -0.4375,1.5 -0.0784,0.28273 -0.14545,0.56227 -0.21875,0.84375 -0.0791,0.30373 -0.17665,0.60398 -0.25,0.90625 -0.14792,0.6095 -0.31249,1.20919 -0.4375,1.8125 -0.0816,0.3937 -0.14659,0.76529 -0.21875,1.15625 -0.30368,1.64558 -0.50813,3.31293 -0.65625,4.90625 -0.0342,0.36987 -0.0673,0.72692 -0.0937,1.09375 -0.0365,0.50667 -0.0715,0.99926 -0.0937,1.5 -0.0351,0.79075 -0.061,1.59966 -0.0625,2.375 -9e-5,0.0503 -5e-5,0.10602 0,0.15625 1.4e-4,0.19228 -0.002,0.37121 0,0.5625 0.006,0.51402 0.043,1.02454 0.0625,1.53125 0.007,0.16936 -0.008,0.33148 0,0.5 0.0155,0.32428 0.0417,0.64759 0.0625,0.96875 0.0793,1.22361 0.19348,2.44882 0.34375,3.625 0.0126,0.099 0.0182,0.21384 0.0312,0.3125 0.0646,0.48545 0.14346,0.96062 0.21875,1.4375 0.18174,1.15119 0.3882,2.27634 0.625,3.375 0.2368,1.09866 0.5312,2.14478 0.8125,3.1875 0.26693,0.98947 0.51482,1.97014 0.8125,2.90625 0.016,0.0504 0.0464,0.10604 0.0625,0.15625 l 14.98942,-22.47181 c -4.12203,-13.44553 -1.3806,-28.25232 6.97933,-37.02819 -1.84194,-1.08777 -3.34766,-2.50243 -4.4375,-4.15625 z"
         id="path354"
         inkscape:connector-curvature="0"
         style="fill:url(#h);fill-rule:evenodd;filter:url(#v)" />
      <path
         d="m 364.31432,246.8325 c -2.15535,0.0724 -4.24402,0.70961 -5.99658,1.77042 -0.25037,0.15155 -0.47742,0.31707 -0.71388,0.48544 -1.8917,1.34693 -3.31958,3.21462 -3.91206,5.39693 -0.0635,0.23382 -0.12981,0.45425 -0.17133,0.68532 -0.003,0.0178 0.003,0.0393 0,0.0571 -0.0367,0.21266 -0.0666,0.44638 -0.0857,0.65676 -0.002,0.019 0.002,0.0381 0,0.0571 -0.0188,0.22735 -0.0292,0.43202 -0.0286,0.65677 -10e-5,0.019 -3e-5,0.0381 0,0.0571 0.002,0.18787 0.0138,0.38502 0.0286,0.57111 0.0236,0.29764 0.0572,0.59583 0.11422,0.88521 0.057,0.28938 0.13931,0.57732 0.22844,0.85665 0.0891,0.27933 0.19418,0.5606 0.31411,0.8281 0.94531,2.10843 2.81444,3.8291 5.31126,4.71161 l 0.11422,0.0286 c 0.31912,0.1088 0.66134,0.20461 0.99943,0.28556 0.33231,0.0768 0.67976,0.14966 1.02799,0.19988 l 0.17133,0.0286 c 0.12369,0.016 0.2476,0.0165 0.37122,0.0285 0.17304,0.0169 0.34129,0.0478 0.51399,0.0571 h 0.17133 c 0.65161,0.0259 1.30454,-0.01 1.94176,-0.0857 0.69343,-0.0826 1.36747,-0.20631 2.02741,-0.39978 l 0.11422,-0.0285 c 0.29696,-0.0901 0.59781,-0.20296 0.88522,-0.31411 l 0.0857,-0.0285 c 0.28563,-0.11282 0.5537,-0.23851 0.8281,-0.37122 l 0.0857,-0.0286 c 0.27385,-0.13494 0.5387,-0.30297 0.79954,-0.45688 0.28878,-0.17047 0.5859,-0.35002 0.85666,-0.54255 l 0.0571,-0.0285 c 0.24963,-0.1799 0.48161,-0.37339 0.71388,-0.57111 l 0.0571,-0.0285 c 0.23163,-0.19943 0.44443,-0.44052 0.65677,-0.65677 0.22829,-0.23288 0.45291,-0.4627 0.65677,-0.71388 l 0.0285,-0.0285 c 0.19245,-0.23905 0.37407,-0.48809 0.54255,-0.74244 l 0.0285,-0.0285 c 0.16756,-0.25523 0.31525,-0.53013 0.45689,-0.79955 l 0.0285,-0.0285 c 0.29291,-0.56292 0.51777,-1.15327 0.68533,-1.77043 1.35425,-4.98811 -2.16043,-9.71587 -7.85268,-10.53686 -0.71153,-0.10262 -1.43784,-0.13787 -2.14164,-0.11422 z"
         id="path356"
         inkscape:connector-curvature="0"
         style="fill:url(#l);fill-rule:evenodd;filter:url(#e)" />
      <path
         d="m 364.31432,246.8325 c -2.15535,0.0724 -4.24402,0.70961 -5.99658,1.77042 -0.25037,0.15155 -0.47742,0.31707 -0.71388,0.48544 -1.8917,1.34693 -3.31958,3.21462 -3.91206,5.39693 -0.0635,0.23382 -0.12981,0.45425 -0.17133,0.68532 -0.003,0.0178 0.003,0.0393 0,0.0571 -0.0367,0.21266 -0.0666,0.44638 -0.0857,0.65676 -0.002,0.019 0.002,0.0381 0,0.0571 -0.0188,0.22735 -0.0292,0.43202 -0.0286,0.65677 -10e-5,0.019 -3e-5,0.0381 0,0.0571 0.002,0.18787 0.0138,0.38502 0.0286,0.57111 0.0236,0.29764 0.0572,0.59583 0.11422,0.88521 0.057,0.28938 0.13931,0.57732 0.22844,0.85665 0.0891,0.27933 0.19418,0.5606 0.31411,0.8281 0.94531,2.10843 2.81444,3.8291 5.31126,4.71161 l 0.11422,0.0286 c 0.31912,0.1088 0.66134,0.20461 0.99943,0.28556 0.33231,0.0768 0.67976,0.14966 1.02799,0.19988 l 0.17133,0.0286 c 0.12369,0.016 0.2476,0.0165 0.37122,0.0285 0.17304,0.0169 0.34129,0.0478 0.51399,0.0571 h 0.17133 c 0.65161,0.0259 1.30454,-0.01 1.94176,-0.0857 0.69343,-0.0826 1.36747,-0.20631 2.02741,-0.39978 l 0.11422,-0.0285 c 0.29696,-0.0901 0.59781,-0.20296 0.88522,-0.31411 l 0.0857,-0.0285 c 0.28563,-0.11282 0.5537,-0.23851 0.8281,-0.37122 l 0.0857,-0.0286 c 0.27385,-0.13494 0.5387,-0.30297 0.79954,-0.45688 0.28878,-0.17047 0.5859,-0.35002 0.85666,-0.54255 l 0.0571,-0.0285 c 0.24963,-0.1799 0.48161,-0.37339 0.71388,-0.57111 l 0.0571,-0.0285 c 0.23163,-0.19943 0.44443,-0.44052 0.65677,-0.65677 0.22829,-0.23288 0.45291,-0.4627 0.65677,-0.71388 l 0.0285,-0.0285 c 0.19245,-0.23905 0.37407,-0.48809 0.54255,-0.74244 l 0.0285,-0.0285 c 0.16756,-0.25523 0.31525,-0.53013 0.45689,-0.79955 l 0.0285,-0.0285 c 0.29291,-0.56292 0.51777,-1.15327 0.68533,-1.77043 1.35425,-4.98811 -2.16043,-9.71587 -7.85268,-10.53686 -0.71153,-0.10262 -1.43784,-0.13787 -2.14164,-0.11422 z"
         id="path358"
         inkscape:connector-curvature="0"
         style="fill:url(#k);fill-rule:evenodd;filter:url(#e)" />
      <path
         d="m 353,259.8125 c 0.0792,0.19951 0.15565,0.40061 0.25,0.59375 -12.0815,12.52468 -17.94659,24.86734 -20.19663,36.14503 -9.57732,35.74304 31.89479,44.03923 17.94663,9.63622 -0.008,-0.0215 0.008,-0.041 0,-0.0625 -0.28847,-0.80503 -0.57224,-1.62406 -0.8125,-2.4375 -0.0487,-0.16502 -0.10958,-0.33474 -0.15625,-0.5 -0.15326,-0.54134 -0.27403,-1.08113 -0.40625,-1.625 -0.0707,-0.29129 -0.12284,-0.58315 -0.1875,-0.875 -0.0983,-0.4436 -0.19678,-0.86796 -0.28125,-1.3125 -0.11558,-0.60795 -0.2226,-1.23486 -0.3125,-1.84375 -0.14197,-0.96175 -0.26523,-1.9142 -0.34375,-2.875 -0.0104,-0.12832 -0.0219,-0.24674 -0.0312,-0.375 -0.0615,-0.8429 -0.11182,-1.69249 -0.125,-2.53125 -0.015,-0.94992 0.0474,-1.93414 0.0937,-2.875 0.0944,-1.91839 0.31191,-3.80051 0.65625,-5.65625 0.0974,-0.52497 0.19537,-1.01302 0.3125,-1.53125 0.0452,-0.20084 0.0768,-0.39402 0.125,-0.59375 0.0771,-0.31836 0.16546,-0.6533 0.25,-0.96875 0.0403,-0.15122 0.0829,-0.28699 0.125,-0.4375 0.4211,-1.5071 0.94119,-2.98028 1.53125,-4.40625 0.35189,-0.85043 0.68284,-1.6841 1.09375,-2.5 0.40295,-0.80008 0.8535,-1.58085 1.3125,-2.34375 0.005,-0.009 -0.005,-0.0225 0,-0.0312 0.93308,-1.54773 1.99687,-2.97423 3.15625,-4.34375 0.57236,-0.6761 1.15484,-1.34214 1.78125,-1.96875 -2.31875,-1.04587 -4.26192,-2.55009 -5.78125,-4.28125 z"
         id="path360"
         inkscape:connector-curvature="0"
         style="fill:url(#g);fill-rule:evenodd;filter:url(#u)" />
    </g>
  </g>
</svg>
