<?xml version="1.0" encoding="utf-8"?>
<!-- Generator: Adobe Illustrator 23.0.3, SVG Export Plug-In . SVG Version: 6.00 Build 0)  -->
<svg version="1.1" id="Warstwa_1" xmlns="http://www.w3.org/2000/svg" xmlns:xlink="http://www.w3.org/1999/xlink" x="0px" y="0px"
	 viewBox="0 0 1337.33 1260.67" style="enable-background:new 0 0 1337.33 1260.67;" xml:space="preserve">
<style type="text/css">
	.st0{fill:#0606FC;}
	.st1{fill:none;stroke:#0606FC;stroke-width:15;stroke-miterlimit:10;}
</style>
<g>
	<path class="st0" d="M311.98,788.56c-1.1,0-2.13-0.22-3.1-0.65c-0.97-0.43-1.81-1.02-2.54-1.75c-0.72-0.73-1.3-1.59-1.72-2.56
		s-0.63-2.02-0.63-3.12c0-1.13,0.21-2.19,0.63-3.19c0.42-1,0.99-1.87,1.72-2.62c0.72-0.75,1.57-1.34,2.54-1.77
		c0.97-0.43,2-0.65,3.1-0.65c1.07,0,2.08,0.22,3.03,0.65c0.94,0.43,1.77,1.02,2.48,1.77c0.71,0.75,1.28,1.62,1.7,2.62
		c0.42,1,0.63,2.06,0.63,3.19c0,1.11-0.21,2.15-0.63,3.12s-0.99,1.83-1.7,2.56c-0.71,0.73-1.54,1.32-2.48,1.75
		C314.06,788.34,313.05,788.56,311.98,788.56z"/>
	<path class="st0" d="M317.07,712.44c0.62-0.25,1.24-0.5,1.87-0.74c-0.65-0.24-1.28-0.49-1.87-0.75c-0.6-0.26-1.2-0.56-1.8-0.9
		l-30.83-17.51c-0.54-0.31-0.86-0.64-0.98-0.98c-0.12-0.34-0.18-0.82-0.18-1.44v-5.16h50.15v6.14h-36.85
		c-0.49,0-1.01-0.01-1.58-0.04c-0.56-0.03-1.13-0.06-1.72-0.11l31.36,17.72c1.05,0.6,1.58,1.44,1.58,2.53v1.01
		c0,1.08-0.53,1.92-1.58,2.53l-31.46,18.12c0.6-0.07,1.2-0.13,1.78-0.16c0.58-0.04,1.12-0.05,1.61-0.05h36.85v6.14h-50.15v-5.16
		c0-0.63,0.06-1.11,0.18-1.45c0.11-0.34,0.44-0.66,0.98-0.97l30.86-17.87C315.86,712.99,316.45,712.69,317.07,712.44z"/>
	<path class="st0" d="M333.43,649.6v7.01h-50.15v-7.01H333.43z"/>
	<path class="st0" d="M324.04,584.52c0.01-0.38,0.18-0.73,0.49-1.03l3.01-2.63c2.29,2.21,4.05,4.85,5.26,7.92
		c1.21,3.07,1.74,6.73,1.57,10.99c-0.15,3.73-0.9,7.08-2.26,10.06c-1.36,2.98-3.21,5.5-5.55,7.55c-2.33,2.06-5.1,3.61-8.29,4.66
		c-3.19,1.06-6.68,1.51-10.45,1.37c-3.78-0.15-7.21-0.91-10.32-2.3c-3.1-1.39-5.73-3.26-7.91-5.63c-2.17-2.37-3.82-5.18-4.94-8.41
		c-1.13-3.24-1.61-6.78-1.46-10.62c0.15-3.8,0.84-7.06,2.1-9.76c1.25-2.71,2.89-5.1,4.93-7.16l3.03,2.4
		c0.23,0.18,0.41,0.38,0.55,0.6c0.15,0.22,0.21,0.54,0.19,0.94c-0.01,0.31-0.14,0.64-0.37,0.98c-0.24,0.34-0.53,0.75-0.87,1.21
		c-0.34,0.47-0.71,1.02-1.11,1.65c-0.4,0.64-0.78,1.39-1.14,2.27c-0.36,0.88-0.68,1.9-0.94,3.07c-0.26,1.17-0.43,2.52-0.49,4.06
		c-0.11,2.76,0.26,5.31,1.09,7.65c0.83,2.33,2.07,4.36,3.71,6.08s3.66,3.1,6.07,4.12c2.41,1.02,5.14,1.59,8.17,1.71
		c3.12,0.12,5.93-0.23,8.41-1.06c2.48-0.83,4.6-2.01,6.35-3.55s3.12-3.38,4.09-5.53c0.97-2.15,1.5-4.49,1.6-7.02
		c0.06-1.54,0.03-2.93-0.1-4.16c-0.12-1.23-0.35-2.38-0.69-3.44c-0.33-1.06-0.77-2.05-1.3-2.97c-0.54-0.93-1.18-1.86-1.94-2.81
		C324.18,585.31,324.02,584.9,324.04,584.52z"/>
	<path class="st0" d="M319.16,545.9l20.44,4.51l-1.5,6.8l-48.97-10.8l3.15-14.28c0.71-3.19,1.63-5.89,2.77-8.08
		c1.14-2.19,2.47-3.91,3.99-5.16c1.52-1.25,3.2-2.06,5.03-2.42c1.84-0.36,3.79-0.31,5.86,0.15c1.73,0.38,3.29,1.02,4.67,1.91
		s2.55,2.01,3.51,3.34c0.96,1.33,1.69,2.86,2.2,4.59s0.75,3.61,0.76,5.66c0.67-0.74,1.53-1.34,2.58-1.8l22.7-10.45l-1.34,6.06
		c-0.27,1.24-0.94,2.06-2.01,2.44l-20.39,9.25c-0.64,0.28-1.13,0.63-1.47,1.04c-0.34,0.42-0.62,1.1-0.83,2.04L319.16,545.9z
		 M314.35,544.83l1.58-7.15c0.44-2,0.6-3.81,0.46-5.42c-0.13-1.62-0.51-3.03-1.14-4.24c-0.63-1.21-1.48-2.2-2.55-2.98
		c-1.07-0.78-2.33-1.33-3.76-1.64c-2.92-0.64-5.33-0.14-7.25,1.52c-1.92,1.66-3.31,4.45-4.18,8.38l-1.65,7.47L314.35,544.83z"/>
	<path class="st0" d="M348.3,446.62c3.45,1.48,6.38,3.4,8.78,5.76c2.4,2.36,4.2,5.02,5.41,7.96c1.2,2.95,1.76,6.11,1.67,9.49
		c-0.08,3.38-0.88,6.82-2.37,10.31c-1.5,3.5-3.43,6.44-5.81,8.82c-2.37,2.39-5.04,4.17-8,5.33c-2.96,1.17-6.13,1.7-9.5,1.6
		c-3.37-0.1-6.78-0.9-10.23-2.37s-6.38-3.4-8.78-5.76c-2.4-2.36-4.21-5.02-5.42-7.97c-1.21-2.95-1.78-6.11-1.71-9.49
		c0.07-3.37,0.86-6.81,2.35-10.3c1.5-3.5,3.44-6.44,5.83-8.83c2.39-2.39,5.07-4.17,8.05-5.33c2.97-1.16,6.14-1.69,9.51-1.59
		C341.43,444.36,344.84,445.15,348.3,446.62z M345.47,453.23c-2.83-1.21-5.54-1.9-8.14-2.06c-2.59-0.17-4.98,0.15-7.16,0.94
		c-2.18,0.8-4.13,2.05-5.86,3.78c-1.73,1.72-3.14,3.87-4.23,6.44c-1.09,2.54-1.66,5.04-1.71,7.47c-0.05,2.44,0.38,4.73,1.31,6.86
		c0.93,2.14,2.35,4.08,4.26,5.84c1.91,1.76,4.28,3.24,7.12,4.45c2.83,1.21,5.54,1.9,8.12,2.06c2.59,0.16,4.97-0.16,7.15-0.97
		c2.18-0.81,4.13-2.07,5.85-3.8c1.71-1.73,3.12-3.86,4.2-6.41c1.1-2.57,1.68-5.07,1.74-7.5s-0.37-4.71-1.3-6.84
		c-0.93-2.12-2.35-4.07-4.25-5.82C350.67,455.92,348.31,454.44,345.47,453.23z"/>
	<path class="st0" d="M362.8,390.74c0.17,0.37,0.26,0.71,0.28,1.01c0.01,0.3-0.08,0.61-0.3,0.93c-0.23,0.34-0.65,0.63-1.28,0.86
		c-0.63,0.23-1.37,0.57-2.22,1c-0.86,0.43-1.77,1.02-2.74,1.78c-0.98,0.76-1.92,1.83-2.83,3.21c-0.86,1.31-1.45,2.57-1.77,3.8
		c-0.32,1.23-0.41,2.37-0.27,3.43c0.14,1.06,0.49,2.02,1.06,2.88c0.56,0.86,1.3,1.59,2.22,2.2c1.17,0.77,2.33,1.11,3.49,1.03
		c1.16-0.09,2.33-0.44,3.52-1.05s2.39-1.41,3.6-2.38c1.21-0.97,2.46-1.97,3.75-2.98c1.28-1.01,2.6-1.96,3.95-2.84
		c1.35-0.88,2.75-1.54,4.21-1.98c1.46-0.43,2.98-0.56,4.56-0.37c1.58,0.19,3.23,0.86,4.97,2c1.83,1.21,3.34,2.66,4.52,4.36
		c1.18,1.7,1.96,3.56,2.34,5.58c0.38,2.02,0.31,4.15-0.19,6.4c-0.5,2.25-1.51,4.52-3.02,6.81c-1.84,2.79-4.01,5.02-6.51,6.67
		c-2.5,1.65-5.12,2.74-7.87,3.27l-1.58-3.46c-0.11-0.3-0.16-0.62-0.15-0.94c0.01-0.33,0.1-0.63,0.29-0.91
		c0.28-0.42,0.82-0.76,1.61-1.01c0.8-0.25,1.73-0.62,2.79-1.08c1.06-0.47,2.19-1.13,3.39-2c1.2-0.87,2.35-2.13,3.45-3.8
		c0.91-1.39,1.54-2.74,1.89-4.07c0.34-1.33,0.43-2.59,0.26-3.79c-0.18-1.2-0.6-2.3-1.27-3.32c-0.67-1.02-1.58-1.9-2.73-2.66
		c-1.27-0.83-2.5-1.22-3.7-1.16c-1.2,0.06-2.39,0.39-3.57,1c-1.18,0.61-2.37,1.4-3.57,2.39c-1.19,0.99-2.41,2-3.67,3.03
		c-1.25,1.03-2.55,1.99-3.89,2.88c-1.34,0.89-2.75,1.54-4.22,1.95c-1.47,0.41-3.03,0.5-4.68,0.26c-1.65-0.23-3.39-0.96-5.25-2.18
		c-1.48-0.98-2.72-2.21-3.71-3.72c-0.99-1.5-1.65-3.17-1.99-5c-0.33-1.83-0.27-3.79,0.18-5.87c0.45-2.08,1.38-4.2,2.8-6.35
		c1.59-2.41,3.41-4.37,5.46-5.87c2.05-1.5,4.27-2.53,6.65-3.1L362.8,390.74z"/>
	<path class="st0" d="M398.29,336.17l4.09,3.72l-16.7,18.38l12.33,11.2l13.52-14.88l3.94,3.58l-13.52,14.88l12.66,11.51l16.7-18.38
		l4.09,3.72l-21.44,23.59l-37.11-33.73L398.29,336.17z"/>
	<path class="st0" d="M446.37,332.11l12.93,16.46l-5.48,4.3l-30.99-39.43l11.49-9.03c2.57-2.02,4.99-3.52,7.27-4.49
		c2.27-0.97,4.39-1.45,6.36-1.46c1.97-0.01,3.78,0.43,5.42,1.32c1.65,0.89,3.13,2.17,4.44,3.84c1.09,1.39,1.89,2.87,2.39,4.44
		c0.49,1.57,0.69,3.17,0.59,4.81c-0.1,1.64-0.51,3.29-1.21,4.94s-1.71,3.27-3,4.85c0.98-0.15,2.03-0.07,3.14,0.25l24.17,6.33
		l-4.88,3.84c-1.01,0.79-2.04,0.99-3.1,0.61l-21.63-5.79c-0.67-0.19-1.27-0.23-1.8-0.13c-0.53,0.11-1.17,0.46-1.93,1.05
		L446.37,332.11z M443.32,328.23l5.76-4.53c1.61-1.26,2.88-2.56,3.8-3.9c0.92-1.33,1.53-2.67,1.81-4c0.28-1.33,0.26-2.64-0.08-3.92
		c-0.34-1.28-0.95-2.5-1.86-3.66c-1.84-2.35-4.04-3.49-6.57-3.43c-2.53,0.07-5.38,1.34-8.54,3.82l-6.02,4.73L443.32,328.23z"/>
	<path class="st0" d="M473.39,276.22l4.94-2.63c0.55-0.29,1.07-0.4,1.55-0.31c0.48,0.09,0.92,0.29,1.31,0.61l29.52,24.38
		c0.67,0.54,1.35,1.16,2.03,1.86c0.68,0.69,1.38,1.42,2.08,2.18c-0.28-0.99-0.53-1.95-0.74-2.9c-0.22-0.94-0.36-1.84-0.44-2.7
		l-3.76-38.07c-0.04-0.43,0.04-0.89,0.25-1.38c0.2-0.49,0.57-0.88,1.1-1.16l4.97-2.65l4.92,54.18l-5.58,2.97L473.39,276.22z"/>
	<path class="st0" d="M567.23,287.76l-6.59,2.36l-16.93-47.2l6.59-2.36L567.23,287.76z"/>
	<path class="st0" d="M627.61,261.8c0.38-0.08,0.75,0,1.12,0.24l3.27,2.3c-1.6,2.75-3.75,5.08-6.45,6.98
		c-2.7,1.9-6.13,3.28-10.3,4.12c-3.66,0.74-7.09,0.8-10.32,0.18c-3.22-0.62-6.1-1.82-8.65-3.6c-2.55-1.78-4.71-4.1-6.49-6.95
		c-1.78-2.85-3.05-6.13-3.8-9.83c-0.75-3.71-0.82-7.23-0.21-10.57c0.61-3.34,1.81-6.34,3.61-9.01c1.79-2.67,4.13-4.94,7-6.79
		c2.88-1.86,6.2-3.17,9.98-3.93c3.73-0.75,7.06-0.84,9.98-0.27c2.93,0.57,5.63,1.61,8.12,3.1l-1.61,3.5
		c-0.11,0.26-0.27,0.49-0.45,0.68c-0.18,0.19-0.47,0.33-0.87,0.41c-0.31,0.06-0.65,0.02-1.04-0.13c-0.38-0.15-0.85-0.33-1.38-0.56
		c-0.54-0.23-1.16-0.46-1.87-0.69c-0.71-0.24-1.54-0.43-2.48-0.57c-0.94-0.14-2.01-0.21-3.2-0.19c-1.2,0.02-2.55,0.18-4.06,0.48
		c-2.71,0.55-5.1,1.5-7.17,2.86c-2.07,1.36-3.75,3.04-5.04,5.04c-1.29,2-2.14,4.29-2.57,6.87c-0.42,2.59-0.33,5.37,0.27,8.34
		c0.62,3.06,1.63,5.71,3.02,7.92c1.39,2.22,3.04,4,4.95,5.33c1.91,1.34,4.02,2.23,6.34,2.66c2.33,0.43,4.73,0.4,7.2-0.1
		c1.51-0.31,2.85-0.67,4.02-1.08c1.17-0.41,2.23-0.91,3.18-1.48c0.95-0.57,1.81-1.23,2.59-1.97c0.77-0.74,1.52-1.59,2.26-2.55
		C626.88,262.12,627.23,261.87,627.61,261.8z"/>
	<path class="st0" d="M687.27,218.11l0.15,5.53l-24.82,0.71l0.47,16.65l20.1-0.57l0.15,5.32l-20.1,0.57l0.49,17.11l24.83-0.71
		l0.15,5.53l-31.86,0.91l-1.43-50.13L687.27,218.11z"/>
	<path class="st0" d="M744.51,231.11c-0.26,0.32-0.52,0.55-0.78,0.69c-0.26,0.14-0.58,0.19-0.97,0.14
		c-0.41-0.05-0.85-0.31-1.34-0.77c-0.49-0.46-1.12-0.98-1.88-1.56c-0.76-0.58-1.7-1.14-2.81-1.68s-2.48-0.92-4.13-1.13
		c-1.55-0.2-2.95-0.17-4.19,0.09c-1.25,0.25-2.31,0.68-3.2,1.27c-0.89,0.59-1.59,1.33-2.12,2.22c-0.53,0.88-0.86,1.87-0.99,2.96
		c-0.18,1.39,0.03,2.58,0.62,3.59c0.59,1,1.42,1.9,2.5,2.7c1.08,0.79,2.32,1.52,3.72,2.18c1.41,0.66,2.85,1.34,4.33,2.05
		c1.47,0.7,2.91,1.47,4.29,2.29c1.39,0.82,2.6,1.79,3.64,2.91c1.03,1.12,1.81,2.43,2.34,3.93c0.53,1.5,0.66,3.28,0.4,5.34
		c-0.28,2.18-0.92,4.17-1.92,5.98c-1.01,1.81-2.33,3.33-3.98,4.56c-1.65,1.23-3.59,2.11-5.83,2.65c-2.24,0.54-4.72,0.64-7.44,0.29
		c-3.32-0.42-6.27-1.39-8.86-2.9c-2.59-1.52-4.72-3.39-6.4-5.63l2.41-2.94c0.22-0.23,0.48-0.42,0.78-0.55
		c0.3-0.14,0.61-0.19,0.95-0.15c0.5,0.06,1.04,0.4,1.62,1s1.31,1.28,2.2,2.03c0.89,0.75,1.99,1.47,3.29,2.16
		c1.31,0.69,2.95,1.17,4.93,1.42c1.65,0.21,3.15,0.18,4.49-0.1c1.35-0.28,2.51-0.76,3.51-1.44c1-0.69,1.8-1.55,2.42-2.6
		c0.62-1.05,1.01-2.26,1.19-3.62c0.19-1.5-0.01-2.78-0.59-3.83c-0.59-1.05-1.41-1.97-2.47-2.76c-1.06-0.79-2.3-1.51-3.72-2.15
		c-1.41-0.64-2.85-1.29-4.33-1.96c-1.48-0.67-2.92-1.41-4.31-2.22c-1.39-0.81-2.59-1.79-3.61-2.93s-1.79-2.5-2.3-4.08
		c-0.51-1.58-0.63-3.47-0.35-5.67c0.23-1.76,0.79-3.42,1.7-4.97c0.91-1.55,2.12-2.88,3.62-3.99c1.5-1.1,3.28-1.91,5.35-2.43
		c2.06-0.51,4.38-0.61,6.93-0.29c2.86,0.36,5.42,1.14,7.67,2.31c2.25,1.18,4.16,2.71,5.71,4.6L744.51,231.11z"/>
	<path class="st0" d="M839.39,250.56l-1.96,5.17l-23.22-8.82l-6.22,16.39l19.84,7.54l-1.96,5.17l-19.84-7.54l-7.66,20.15l-6.58-2.5
		l17.8-46.88L839.39,250.56z"/>
	<path class="st0" d="M859.69,293.35l-10.58,18.06l-6.01-3.52l25.34-43.28l12.62,7.39c2.82,1.65,5.1,3.36,6.83,5.12
		c1.73,1.76,2.96,3.55,3.68,5.38c0.73,1.83,0.98,3.68,0.76,5.53c-0.23,1.86-0.87,3.7-1.95,5.53c-0.9,1.53-1.98,2.81-3.26,3.85
		c-1.28,1.04-2.7,1.81-4.26,2.31c-1.57,0.5-3.25,0.73-5.04,0.68c-1.8-0.05-3.67-0.39-5.62-1.02c0.5,0.86,0.81,1.86,0.92,3.01
		l2.96,24.81l-5.36-3.14c-1.1-0.64-1.67-1.53-1.7-2.66l-2.54-22.25c-0.07-0.69-0.25-1.26-0.54-1.72c-0.29-0.46-0.85-0.93-1.68-1.41
		L859.69,293.35z M862.18,289.09l6.33,3.7c1.76,1.03,3.44,1.74,5.02,2.11c1.58,0.37,3.04,0.45,4.39,0.22
		c1.35-0.23,2.55-0.73,3.62-1.51c1.07-0.78,1.98-1.8,2.72-3.07c1.51-2.58,1.77-5.03,0.78-7.37c-0.99-2.34-3.22-4.52-6.68-6.55
		l-6.61-3.87L862.18,289.09z"/>
	<path class="st0" d="M925.94,367.72l-4.12-3.52c-0.47-0.41-0.76-0.85-0.86-1.33c-0.1-0.48-0.07-0.96,0.09-1.44l4.19-12.35
		L907.61,334l-11.54,6.06c-0.4,0.21-0.86,0.3-1.39,0.29c-0.53-0.02-1.01-0.22-1.47-0.61l-4.12-3.52l48.31-24.69l5.41,4.62
		L925.94,367.72z M912.27,331.55l14.68,12.55l7.08-20.79c0.41-1.3,1.05-2.83,1.89-4.6c-0.83,0.55-1.59,1.06-2.31,1.5
		c-0.71,0.45-1.36,0.83-1.94,1.13L912.27,331.55z"/>
	<path class="st0" d="M969.55,393.44c-0.34,0.58-0.68,1.16-1.03,1.73c0.66-0.21,1.31-0.39,1.95-0.55c0.63-0.15,1.29-0.28,1.98-0.39
		l35.1-5.01c0.62-0.08,1.07-0.02,1.37,0.17c0.3,0.19,0.64,0.54,1.02,1.03l3.15,4.08l-39.67,30.68l-3.75-4.85l29.15-22.54
		c0.39-0.3,0.81-0.61,1.27-0.94c0.45-0.32,0.93-0.64,1.42-0.96l-35.65,5.16c-1.2,0.17-2.13-0.18-2.79-1.04l-0.62-0.8
		c-0.66-0.86-0.76-1.84-0.3-2.96l13.81-33.58c-0.44,0.43-0.87,0.84-1.31,1.22c-0.44,0.39-0.85,0.73-1.24,1.03l-29.15,22.54
		l-3.75-4.86l39.67-30.68l3.15,4.08c0.38,0.5,0.63,0.91,0.75,1.25c0.11,0.34,0.05,0.79-0.18,1.37l-13.49,33.02
		C970.17,392.27,969.89,392.86,969.55,393.44z"/>
	<path class="st0" d="M1045.71,454.61l-4.95,2.47l-11.08-22.23l-14.91,7.43l8.97,18l-4.76,2.37l-8.97-18l-15.32,7.63l11.08,22.23
		l-4.95,2.47l-14.22-28.53l44.89-22.37L1045.71,454.61z"/>
	<path class="st0" d="M1057.74,481.02l1.46,5.62c0.16,0.61,0.14,1.14-0.05,1.62c-0.19,0.47-0.49,0.84-0.91,1.09l-31.04,19.12
		c-0.56,0.34-1.17,0.68-1.84,1.02c-0.66,0.33-1.35,0.67-2.09,1.01c0.81-0.04,1.59-0.07,2.35-0.09c0.75-0.02,1.45,0,2.09,0.05l36.8,3
		c0.42,0.04,0.85,0.22,1.28,0.54c0.43,0.32,0.73,0.77,0.88,1.36l0.51,1.96c0.16,0.6,0.14,1.14-0.05,1.6
		c-0.19,0.46-0.49,0.83-0.9,1.11l-30.69,20.48c-1.07,0.73-2.31,1.45-3.74,2.17c0.78-0.06,1.53-0.11,2.24-0.17
		c0.71-0.06,1.38-0.07,2.01-0.04l36.44,1.6c0.44,0.01,0.86,0.18,1.29,0.5c0.42,0.33,0.71,0.78,0.86,1.36l1.37,5.27l-52.6-2.99
		l-1.58-6.08l33.72-22.31c0.63-0.44,1.38-0.88,2.25-1.33c-0.48,0-0.94,0-1.39,0.01c-0.45,0-0.85-0.01-1.22-0.04l-40.34-3.12
		l-1.58-6.08L1057.74,481.02z"/>
	<path class="st0" d="M1055.11,632.39c-3.75,0.1-7.22-0.43-10.39-1.57c-3.17-1.15-5.91-2.81-8.23-4.99
		c-2.32-2.18-4.14-4.82-5.47-7.93c-1.33-3.11-2.04-6.56-2.14-10.36s0.44-7.28,1.61-10.44c1.16-3.16,2.85-5.89,5.06-8.18
		c2.21-2.29,4.86-4.1,7.96-5.4s6.53-2.01,10.29-2.1c3.75-0.1,7.21,0.43,10.38,1.57c3.17,1.15,5.92,2.81,8.25,4.99
		c2.33,2.18,4.17,4.81,5.51,7.91c1.34,3.09,2.06,6.54,2.16,10.34c0.1,3.8-0.44,7.29-1.62,10.46c-1.18,3.17-2.88,5.91-5.1,8.2
		c-2.21,2.29-4.88,4.1-7.98,5.4S1058.87,632.29,1055.11,632.39z M1054.93,625.21c3.08-0.08,5.83-0.58,8.26-1.51s4.47-2.21,6.12-3.84
		c1.65-1.63,2.9-3.59,3.75-5.88s1.24-4.82,1.17-7.61c-0.07-2.77-0.59-5.27-1.56-7.51c-0.97-2.24-2.32-4.13-4.05-5.69
		s-3.83-2.74-6.31-3.54c-2.47-0.8-5.25-1.16-8.33-1.09c-3.08,0.08-5.82,0.58-8.24,1.51c-2.42,0.93-4.45,2.21-6.1,3.86
		c-1.65,1.65-2.89,3.61-3.74,5.89c-0.84,2.28-1.22,4.81-1.15,7.58c0.07,2.79,0.59,5.3,1.54,7.54c0.95,2.24,2.3,4.13,4.03,5.67
		c1.73,1.54,3.83,2.72,6.29,3.53C1049.08,624.93,1051.85,625.29,1054.93,625.21z"/>
	<path class="st0" d="M1050.46,664.73h-20.93v-6.97h50.15v14.62c0,3.27-0.32,6.1-0.96,8.48c-0.64,2.38-1.57,4.35-2.78,5.9
		c-1.21,1.55-2.67,2.7-4.39,3.45c-1.72,0.75-3.64,1.12-5.76,1.12c-1.77,0-3.43-0.29-4.97-0.87c-1.54-0.57-2.92-1.41-4.15-2.51
		c-1.23-1.09-2.27-2.43-3.13-4.01c-0.86-1.58-1.52-3.37-1.96-5.36c-0.49,0.86-1.2,1.64-2.14,2.31l-19.91,15.09v-6.21
		c0-1.28,0.48-2.21,1.43-2.82l17.92-13.43c0.56-0.41,0.96-0.85,1.21-1.33c0.24-0.49,0.37-1.2,0.37-2.17V664.73z M1055.39,664.73
		v7.33c0,2.04,0.24,3.84,0.71,5.4c0.48,1.55,1.16,2.85,2.03,3.9c0.87,1.05,1.92,1.83,3.13,2.36c1.21,0.53,2.55,0.79,4.02,0.79
		c2.99,0,5.24-1.02,6.76-3.05c1.52-2.03,2.28-5.06,2.28-9.08v-7.66H1055.39z"/>
	<path class="st0" d="M1057.7,725.66v2.63c0,0.91,0.11,1.64,0.33,2.18c0.22,0.54,0.6,1.05,1.14,1.53l18.9,17.22
		c0.58,0.53,1,1.04,1.24,1.54c0.24,0.49,0.37,1.13,0.37,1.89v5.96l-21.59-19.71c-0.53-0.5-0.99-0.98-1.36-1.43
		c-0.38-0.45-0.68-0.92-0.91-1.43c-0.21,0.67-0.53,1.26-0.94,1.77c-0.42,0.5-0.95,1.03-1.58,1.59l-23.76,20.57v-6.06
		c0-0.46,0.04-0.84,0.11-1.16c0.07-0.31,0.16-0.58,0.28-0.81c0.12-0.23,0.27-0.44,0.45-0.63c0.19-0.19,0.39-0.39,0.6-0.58
		l19.91-17.87c0.28-0.26,0.52-0.51,0.72-0.74c0.2-0.23,0.37-0.49,0.51-0.79c0.14-0.3,0.24-0.65,0.3-1.05
		c0.06-0.4,0.09-0.89,0.09-1.46v-3.17h-22.96v-6.97h50.15v6.97H1057.7z"/>
	<path class="st0" d="M1050.98,788c1.1,0,2.13,0.22,3.1,0.65c0.97,0.43,1.81,1.01,2.54,1.75c0.72,0.73,1.3,1.59,1.72,2.56
		c0.42,0.98,0.63,2.02,0.63,3.12c0,1.13-0.21,2.2-0.63,3.19c-0.42,1-0.99,1.87-1.72,2.62s-1.57,1.34-2.54,1.77
		c-0.97,0.44-2,0.65-3.1,0.65c-1.07,0-2.08-0.22-3.03-0.65c-0.94-0.43-1.77-1.02-2.48-1.77c-0.71-0.75-1.28-1.61-1.7-2.62
		c-0.42-1-0.63-2.06-0.63-3.19c0-1.11,0.21-2.15,0.63-3.12c0.42-0.97,0.99-1.83,1.7-2.56c0.71-0.74,1.54-1.32,2.48-1.75
		C1048.9,788.22,1049.91,788,1050.98,788z"/>
</g>
<g>
	<path class="st0" d="M466.05,962.83c0.79,0,1.58,0.15,2.37,0.44c0.79,0.3,1.54,0.81,2.27,1.53l13.21,13.9
		c-5.78,7.56-13.03,13.26-21.74,17.1c-8.71,3.84-19.01,5.77-30.9,5.77c-10.91,0-20.69-1.86-29.33-5.57
		c-8.64-3.71-15.97-8.84-21.98-15.38c-6.01-6.54-10.63-14.29-13.85-23.26c-3.22-8.97-4.83-18.71-4.83-29.23
		c0-10.71,1.84-20.55,5.52-29.52c3.68-8.97,8.82-16.71,15.43-23.21c6.6-6.51,14.51-11.57,23.71-15.18
		c9.2-3.61,19.35-5.42,30.46-5.42c5.39,0,10.46,0.48,15.23,1.43c4.76,0.95,9.22,2.27,13.36,3.94c4.14,1.68,7.95,3.68,11.43,6.01
		c3.48,2.33,6.57,4.91,9.27,7.74l-11.24,15.08c-0.72,0.92-1.58,1.76-2.56,2.51c-0.99,0.76-2.37,1.13-4.14,1.13
		c-1.18,0-2.3-0.26-3.35-0.79c-1.05-0.53-2.17-1.17-3.35-1.92c-1.18-0.75-2.48-1.58-3.89-2.46c-1.41-0.89-3.09-1.71-5.03-2.46
		c-1.94-0.75-4.21-1.39-6.8-1.92c-2.6-0.53-5.64-0.79-9.12-0.79c-6.05,0-11.57,1.07-16.56,3.2c-4.99,2.14-9.28,5.19-12.86,9.17
		c-3.58,3.98-6.37,8.79-8.38,14.44c-2.01,5.65-3.01,11.99-3.01,19.02c0,7.36,1,13.9,3.01,19.62c2,5.72,4.73,10.53,8.18,14.44
		c3.45,3.91,7.47,6.88,12.08,8.92c4.6,2.04,9.53,3.06,14.79,3.06c3.02,0,5.78-0.15,8.28-0.44c2.5-0.3,4.81-0.8,6.95-1.53
		c2.13-0.72,4.17-1.66,6.11-2.81c1.94-1.15,3.89-2.58,5.86-4.29c0.79-0.66,1.64-1.2,2.56-1.63
		C464.11,963.04,465.06,962.83,466.05,962.83z"/>
	<path class="st0" d="M499.07,999.99V897.77h18.14c1.51,0,2.78,0.13,3.79,0.39c1.02,0.26,1.87,0.67,2.56,1.23
		c0.69,0.56,1.22,1.3,1.58,2.22c0.36,0.92,0.67,2.04,0.94,3.35l1.68,9.56c3.75-5.78,7.95-10.35,12.62-13.7
		c4.67-3.35,9.76-5.03,15.28-5.03c4.67,0,8.41,1.12,11.24,3.35l-3.94,22.48c-0.26,1.38-0.79,2.35-1.58,2.91
		c-0.79,0.56-1.84,0.84-3.15,0.84c-1.12,0-2.43-0.15-3.94-0.44c-1.51-0.3-3.42-0.44-5.72-0.44c-8.02,0-14.33,4.27-18.93,12.81v62.69
		H499.07z"/>
	<path class="st0" d="M615.59,869.77c0,2.43-0.49,4.72-1.48,6.85c-0.99,2.14-2.33,4.01-4.04,5.62c-1.71,1.61-3.7,2.89-5.96,3.84
		c-2.27,0.95-4.68,1.43-7.24,1.43c-2.5,0-4.83-0.47-7-1.43c-2.17-0.95-4.09-2.23-5.77-3.84c-1.68-1.61-2.99-3.48-3.94-5.62
		c-0.95-2.14-1.43-4.42-1.43-6.85c0-2.5,0.48-4.83,1.43-7c0.95-2.17,2.27-4.07,3.94-5.72c1.68-1.64,3.6-2.92,5.77-3.84
		c2.17-0.92,4.5-1.38,7-1.38c2.56,0,4.98,0.46,7.24,1.38c2.27,0.92,4.25,2.2,5.96,3.84c1.71,1.64,3.06,3.55,4.04,5.72
		C615.09,864.94,615.59,867.28,615.59,869.77z M612.04,897.77v102.22h-30.56V897.77H612.04z"/>
	<path class="st0" d="M710.41,922.02c-0.92,1.12-1.81,2.01-2.66,2.66c-0.85,0.66-2.07,0.99-3.65,0.99c-1.51,0-2.88-0.36-4.09-1.08
		c-1.22-0.72-2.58-1.53-4.09-2.42c-1.51-0.89-3.29-1.69-5.32-2.42c-2.04-0.72-4.57-1.08-7.59-1.08c-3.75,0-6.98,0.69-9.71,2.07
		c-2.73,1.38-4.98,3.35-6.75,5.91c-1.77,2.56-3.09,5.7-3.94,9.41c-0.85,3.71-1.28,7.9-1.28,12.57c0,9.79,1.89,17.32,5.67,22.57
		c3.78,5.26,8.99,7.89,15.62,7.89c3.55,0,6.36-0.44,8.43-1.33c2.07-0.89,3.83-1.87,5.27-2.96c1.44-1.08,2.78-2.08,3.99-3.01
		c1.22-0.92,2.74-1.38,4.58-1.38c2.43,0,4.27,0.89,5.52,2.66l8.87,10.94c-3.15,3.61-6.47,6.56-9.96,8.82
		c-3.48,2.27-7.05,4.04-10.7,5.32c-3.65,1.28-7.31,2.17-10.99,2.66c-3.68,0.49-7.26,0.74-10.74,0.74c-6.24,0-12.21-1.18-17.89-3.55
		c-5.68-2.37-10.68-5.8-14.98-10.3c-4.3-4.5-7.72-10.04-10.25-16.61c-2.53-6.57-3.8-14.06-3.8-22.48c0-7.36,1.1-14.24,3.3-20.65
		c2.2-6.41,5.45-11.96,9.76-16.66c4.3-4.7,9.63-8.39,15.97-11.09c6.34-2.69,13.69-4.04,22.03-4.04c8.02,0,15.05,1.28,21.09,3.84
		c6.05,2.56,11.5,6.31,16.36,11.24L710.41,922.02z"/>
	<path class="st0" d="M763.05,852.42v82.7h4.53c1.91,0,3.37-0.26,4.39-0.79c1.02-0.53,1.99-1.48,2.91-2.86l19.32-28.78
		c1.12-1.71,2.45-2.96,3.99-3.75c1.54-0.79,3.5-1.18,5.87-1.18h27.99l-26.42,36.37c-1.25,1.71-2.61,3.22-4.09,4.53
		c-1.48,1.32-3.07,2.5-4.78,3.55c2.96,2.23,5.52,5.19,7.69,8.87l28.78,48.89h-27.6c-2.3,0-4.29-0.38-5.96-1.13
		c-1.68-0.75-3.04-2.09-4.09-3.99l-19.32-36.18c-0.92-1.64-1.87-2.71-2.86-3.2c-0.99-0.49-2.46-0.74-4.44-0.74h-5.91v45.25h-30.56
		V852.42H763.05z"/>
	<path class="st0" d="M883.9,896.19c6.77,0,12.96,1.05,18.58,3.15c5.62,2.1,10.45,5.16,14.49,9.17c4.04,4.01,7.2,8.92,9.46,14.74
		c2.27,5.82,3.4,12.41,3.4,19.76c0,2.3-0.1,4.17-0.3,5.62c-0.2,1.45-0.56,2.6-1.08,3.45c-0.53,0.86-1.23,1.45-2.12,1.78
		c-0.89,0.33-2.02,0.49-3.4,0.49h-58.95c0.99,8.54,3.58,14.74,7.79,18.58c4.21,3.84,9.63,5.77,16.27,5.77c3.55,0,6.6-0.43,9.17-1.28
		c2.56-0.85,4.85-1.81,6.85-2.86c2-1.05,3.84-2,5.52-2.86c1.68-0.85,3.43-1.28,5.27-1.28c2.43,0,4.27,0.89,5.52,2.66l8.87,10.94
		c-3.15,3.61-6.56,6.56-10.2,8.82s-7.39,4.04-11.24,5.32c-3.84,1.28-7.69,2.17-11.53,2.66c-3.84,0.49-7.51,0.74-10.99,0.74
		c-7.16,0-13.88-1.17-20.16-3.5c-6.28-2.33-11.76-5.8-16.46-10.4c-4.7-4.6-8.41-10.32-11.14-17.15c-2.73-6.83-4.09-14.79-4.09-23.85
		c0-6.83,1.17-13.31,3.5-19.42c2.33-6.11,5.68-11.47,10.05-16.07c4.37-4.6,9.66-8.25,15.87-10.94
		C869.06,897.54,876.08,896.19,883.9,896.19z M884.49,917.29c-5.85,0-10.42,1.66-13.7,4.98c-3.29,3.32-5.46,8.1-6.51,14.34h38.15
		c0-2.43-0.31-4.8-0.94-7.1c-0.63-2.3-1.64-4.35-3.06-6.16c-1.41-1.81-3.27-3.27-5.57-4.39
		C890.57,917.84,887.78,917.29,884.49,917.29z"/>
	<path class="st0" d="M983.26,1001.57c-4.86,0-9.15-0.71-12.86-2.12c-3.71-1.41-6.84-3.42-9.36-6.01c-2.53-2.59-4.45-5.73-5.77-9.41
		c-1.32-3.68-1.97-7.79-1.97-12.32v-52.84h-8.67c-1.58,0-2.93-0.51-4.04-1.53c-1.12-1.02-1.68-2.51-1.68-4.48v-11.93l16.26-3.15
		l6.01-24.94c0.79-3.15,3.02-4.73,6.7-4.73h15.97v29.87h24.84v20.9h-24.84v50.77c0,2.37,0.57,4.32,1.72,5.86
		c1.15,1.55,2.81,2.32,4.98,2.32c1.12,0,2.05-0.11,2.81-0.34c0.76-0.23,1.41-0.49,1.97-0.79c0.56-0.3,1.08-0.56,1.58-0.79
		c0.49-0.23,1.07-0.35,1.73-0.35c0.92,0,1.66,0.21,2.22,0.64c0.56,0.43,1.13,1.1,1.73,2.02l9.27,14.49
		c-3.94,2.96-8.38,5.17-13.31,6.65C993.61,1000.83,988.52,1001.57,983.26,1001.57z"/>
</g>
<g>
	<g>
		<path class="st0" d="M501.73,701.14L482.3,657.3l18.44-38.56l20.39,37.89L501.73,701.14z M492.51,657.45l9.15,20.65l9.17-21.04
			l-9.6-17.84L492.51,657.45z"/>
	</g>
	<g>
		<path class="st1" d="M540.7,603.84"/>
	</g>
	<g>
		<path class="st1" d="M731.78,642.23"/>
	</g>
	<g>
		<path class="st1" d="M706.03,564.39"/>
	</g>
	<g>
		<path class="st1" d="M952.66,598.5"/>
	</g>
	<g>
		<path class="st1" d="M481.91,603.84"/>
	</g>
	<path class="st0" d="M875.65,728.86l-32.36-53.19l134-58.37l-17.55-77.61l-70.04-16.63l-115.95,38.35l-0.54-0.88l-0.03-0.05
		l-0.07-0.12c-0.03-0.05-0.47-0.77-1.19-1.95l-17.21-28.29l-0.51-0.82l-0.04,0.02c-1.16-1.84-3.24-2.93-5.43-2.85
		c-2.19,0.08-4.12,1.31-5.14,3.29l-17.93,34.72c-14.29-29.23-14.39-29.4-14.55-29.66c-1.16-1.88-3.25-2.99-5.47-2.91
		c-2.19,0.08-4.11,1.31-5.12,3.27l-16.6,31.68l-10.83-3.71l-118.49,41.07l-9.3-25.09l-55.91,17.49l13.99-37.06l251.35-65.02
		l1.38-0.36l19.49-22.09l-6.95-6.14l-17.61,19.96l-252.3,65.27l-2.33,0.6l-18.76,49.7l-22.9,58.33l20.57,47.19l-66.78,47.17h-31.91
		v9.27h34.86l67.62-47.76l10.99,25.22l52.97,17.62l10.57-30.29l40.71,12.51l-43.58,41.54h-31.53v9.27h35.24l51.23-48.84l51.71-16.83
		l8.37,18.85l35.94-15.68l9.66-22.39l31.02,12.92l21.44-9.34l17.1,28.09h48.47v-9.27h-43.26l-13.73-22.56l62.28-27.13l33.05,54.3
		l13.93,22.03h51.6v-9.27h-46.5L875.65,728.86z M705.84,545.05c3.82,7.81,10.65,21.77,14.53,29.71l-2.02,3.91l-25.55-8.75
		L705.84,545.05z M537.32,746.86l-40.37-13.43l-32.15-73.76l20.61-52.07l54.26-16.97l26.87,72.47L537.32,746.86z M653.64,717.39
		l-50.41,16.41l-46.54-14.31l19.7-56.48l-18.56-50.07l115.29-39.96L714.06,587l-12.49,24.17l-52.26,96.47L653.64,717.39z
		 M704.69,698.81l-10.02,23.23l-24.13,10.53l-10.89-24.53l50.11-92.49l39.51-76.49c3.4,5.57,8.97,14.7,12.69,20.79l2.06,3.38
		L704.69,698.81z M742.32,709.53l-27.24-11.35l54.81-125.27l59.94,98.5L742.32,709.53z M778.7,569.54l111.42-36.85l61.85,14.69
		l14.58,64.48l-128.13,55.81L778.7,569.54z"/>
	<g>
		<path class="st1" d="M723.61,578.6"/>
	</g>
</g>
</svg>
