<?xml version="1.0" encoding="UTF-8" standalone="no"?>
<svg
   xmlns:dc="http://purl.org/dc/elements/1.1/"
   xmlns:cc="http://creativecommons.org/ns#"
   xmlns:rdf="http://www.w3.org/1999/02/22-rdf-syntax-ns#"
   xmlns:svg="http://www.w3.org/2000/svg"
   xmlns="http://www.w3.org/2000/svg"
   viewBox="0 0 4294.6665 2972"
   height="2972"
   width="4294.6665"
   xml:space="preserve"
   id="svg2"
   version="1.1"><metadata
     id="metadata8"><rdf:RDF><cc:Work
         rdf:about=""><dc:format>image/svg+xml</dc:format><dc:type
           rdf:resource="http://purl.org/dc/dcmitype/StillImage" /></cc:Work></rdf:RDF></metadata><defs
     id="defs6" /><g
     transform="matrix(1.3333333,0,0,-1.3333333,0,2972)"
     id="g10"><g
       transform="scale(0.1)"
       id="g12"><g
         transform="scale(1.58286)"
         id="g14"><path
           id="path16"
           style="fill:#21409a;fill-opacity:1;fill-rule:evenodd;stroke:none"
           d="M 12571.8,7459.48 11320,9619.34 12571.8,11758.6 h 2476.3 L 16300,9619.34 15048.1,7459.48 Z" /></g><g
         transform="scale(1.97548)"
         id="g18"><path
           id="path20"
           style="fill:#27aae1;fill-opacity:1;fill-rule:evenodd;stroke:none"
           d="m 13301.8,7827.65 -992.1,1725.07 992.1,1730.58 h 1995.1 L 16300,9552.72 15296.9,7827.65 Z" /></g><g
         transform="scale(1.97548)"
         id="g22"><path
           id="path24"
           style="fill:#1c75bc;fill-opacity:1;fill-rule:evenodd;stroke:none"
           d="m 13301.8,4057.91 -992.1,1725.07 992.1,1730.59 h 1995.1 L 16300,5782.98 15296.9,4057.91 Z" /></g><g
         transform="scale(1.35693)"
         id="g26"><path
           id="path28"
           style="fill:#662d91;fill-opacity:1;fill-rule:evenodd;stroke:none"
           d="M 10483,12745.5 9464.03,14526.8 10483,16300 h 2054.1 l 1019.1,-1773.2 -1019.1,-1781.3 z" /></g><g
         transform="scale(1.90481)"
         id="g30"><path
           id="path32"
           style="fill:#8dc63f;fill-opacity:1;fill-rule:evenodd;stroke:none"
           d="m 14110.8,841.74 -737.3,1268.93 737.3,1263.2 h 1451.8 L 16300,2110.67 15562.6,841.74 Z" /></g><g
         transform="scale(1.15247)"
         id="g34"><path
           id="path36"
           style="fill:#27aae1;fill-opacity:1;fill-rule:evenodd;stroke:none"
           d="m 9122.3,13031.2 -935.29,1634.4 935.29,1634.4 h 1898.9 l 935.3,-1634.4 -935.3,-1634.4 z" /></g><g
         transform="scale(1.59695)"
         id="g38"><path
           id="path40"
           style="fill:#27aae1;fill-opacity:1;fill-rule:evenodd;stroke:none"
           d="M 14254.6,2.47297 13579.7,1181.94 14254.6,2375.06 H 15625 L 16300,1181.94 15625,2.47297 Z" /></g><g
         transform="scale(10)"
         id="g42"><g
           id="text46"
           style="font-variant:normal;font-weight:bold;font-size:586.4630127px;font-family:'Roboto Condensed';-inkscape-font-specification:RobotoCondensed-Bold;writing-mode:lr-tb;fill:#21409a;fill-opacity:1;fill-rule:nonzero;stroke:none"
           transform="matrix(0.984925,0,0,-1,-32.9988,553.667)"
           aria-label="EXPERIOT"><path
             id="path48"
             style=""
             d="M 248.84588,-180.4061 H 117.6935 V -69.87157 H 272.90002 V 0 H 33.50399 v -416.93855 h 238.82332 v 70.15793 H 117.6935 v 98.50746 h 131.15238 z" /><path
             id="path50"
             style=""
             d="m 452.03698,-273.7591 56.12635,-143.17945 h 96.50294 L 506.73153,-210.18743 606.95715,0 H 509.30876 L 452.03698,-145.75668 395.05156,0 h -97.64838 l 100.22561,-210.18743 -98.2211,-206.75112 h 96.50295 z" /><path
             id="path52"
             style=""
             d="M 734.06612,-146.61575 V 0 h -84.18951 v -416.93855 h 142.03401 q 61.85352,0 98.50746,38.37209 36.9403,38.3721 36.9403,99.6529 0,61.2808 -36.36758,96.7893 -36.36758,35.50851 -100.79833,35.50851 z m 0,-70.15793 h 57.8445 q 24.05415,0 37.22666,-15.74974 13.17251,-15.74974 13.17251,-45.81742 0,-31.21312 -13.45887,-49.54009 -13.45887,-18.61333 -36.08122,-18.89969 h -58.70358 z" /><path
             id="path54"
             style=""
             d="m 1198.9159,-180.4061 h -131.1523 v 110.53453 h 155.2065 V 0 H 983.57406 v -416.93855 h 238.82334 v 70.15793 h -154.6338 v 98.50746 h 131.1523 z" /><path
             id="path56"
             style=""
             d="m 1397.8117,-152.34293 h -41.8084 V 0 h -84.1895 v -416.93855 h 134.3023 q 63.2853,0 97.6484,32.93127 34.6494,32.64492 34.6494,93.06664 0,83.04408 -60.4217,116.26172 l 73.0215,170.6698955 V 0 h -90.4894 z m -41.8084,-70.15793 h 47.8219 q 25.1996,0 37.7994,-16.60882 12.5998,-16.89517 12.5998,-44.95834 0,-62.7126 -48.9674,-62.7126 h -49.2537 z" /><path
             id="path58"
             style=""
             d="m 1684.3401,0 h -84.1895 v -416.93855 h 84.1895 z" /><path
             id="path60"
             style=""
             d="m 2048.8772,-170.95626 q 0,83.903157 -39.8039,130.293297 -39.5175,46.3901409 -109.9618,46.3901409 -70.1579,0 -110.2482,-45.8174229 -40.0902,-46.103782 -40.6629,-128.861505 v -71.30336 q 0,-85.90767 39.8039,-134.01596 39.8038,-48.39466 110.5345,-48.39466 69.5852,0 109.6754,47.53558 40.0903,47.24922 40.663,132.87053 z m -84.4759,-69.87157 q 0,-56.4127 -16.0361,-83.90315 -16.0361,-27.49046 -49.8264,-27.49046 -33.504,0 -49.5401,26.63138 -16.0361,26.34502 -16.6088,80.46685 v 74.16695 q 0,54.69455 16.3224,80.753209 16.3225,25.7723 50.3992,25.7723 32.9313,0 48.9674,-25.199582 16.0361,-25.485937 16.3224,-78.748697 z" /><path
             id="path62"
             style=""
             d="M 2354.7504,-346.78062 H 2251.6612 V 0 h -84.4759 v -346.78062 h -101.371 v -70.15793 h 288.9361 z" /></g></g></g></g></svg>